<?xml version="1.0" standalone="no"?>
<!DOCTYPE svg PUBLIC "-//W3C//DTD SVG 1.1//EN" "http://www.w3.org/Graphics/SVG/1.1/DTD/svg11.dtd" >
<svg xmlns="http://www.w3.org/2000/svg" xmlns:xlink="http://www.w3.org/1999/xlink" version="1.1">
<metadata>
Created by FontForge 20190801 at Fri Jan  1 00:00:00 1904
 By root
Jirimuto
</metadata>
<defs>
<font id="MongolianTitle" horiz-adv-x="512" >
  <font-face 
    font-family="Mongolian Title"
    font-weight="400"
    font-stretch="normal"
    units-per-em="1024"
    panose-1="2 11 6 0 0 0 0 0 0 0"
    ascent="819"
    descent="-205"
    x-height="520"
    cap-height="760"
    bbox="-106.884 -324 1367.6 1029.5"
    underline-thickness="48"
    underline-position="-120"
    unicode-range="U+0020-2219"
  />
<missing-glyph 
d="M206 400v100h100v-100h-100z" />
    <glyph glyph-name=".notdef" 
d="M206 400v100h100v-100h-100z" />
    <glyph glyph-name="glyph1" horiz-adv-x="0" 
 />
    <glyph glyph-name="space" unicode=" " 
 />
    <glyph glyph-name="exclam" unicode="!" horiz-adv-x="265" 
d="M124 224l-45 408l-5 46v13q0 36 15.5 57.5t42.5 21.5q23 0 42 -21q16 -22 16 -58v-13l-4 -46l-45 -408h-17zM71 52q0 25 18 43t43 18q24 0 42.5 -18.5t18.5 -42.5t-18 -45q-20 -17 -43 -17q-25 0 -44 17q-17 20 -17 45z" />
    <glyph glyph-name="quotedbl" unicode="&#x22;" horiz-adv-x="398" 
d="M87 537l-29 138l-8 39v11q0 21 14.5 38.5t41.5 17.5q26 0 41 -17q15 -16 15 -39v-11l-7 -39l-29 -138h-39zM273 537l-29 138l-8 39v11q0 21 14.5 38.5t41.5 17.5q26 0 41 -17q15 -16 15 -39v-11l-7 -39l-29 -138h-39z" />
    <glyph glyph-name="numbersign" unicode="#" horiz-adv-x="668" 
d="M407 48h-47l30 171h-169l-31 -171h-47l31 171h-117l11 57h116l38 213h-117l11 57h116l31 171h47l-32 -171h170l32 171h46l-31 -171h117l-10 -57h-116l-39 -213h117l-10 -57h-117zM402 276l37 213h-170l-37 -213h170z" />
    <glyph glyph-name="dollar" unicode="$" horiz-adv-x="587" 
d="M79 41v156h11q13 -74 56.5 -117.5t110.5 -50.5v335q-89 46 -133.5 102.5t-44.5 130.5q0 68 49 117q27 26 58.5 40.5t70.5 14.5v59h38v-59q26 0 43.5 -3.5t55.5 -14.5t77 -36l6 -162h-16q-8 80 -56 130t-110 50v-277q125 -78 168.5 -137t43.5 -125q0 -85 -65 -143
q-32 -28 -69.5 -44.5t-77.5 -16.5v-70h-38v70q-28 0 -47 3.5t-51 12.5q-44 13 -80 35zM295 340v-311q61 6 95.5 43.5t34.5 93.5q0 45 -29 86t-101 88zM257 479v254q-46 -6 -70.5 -37t-24.5 -76q0 -41 24 -77t71 -64z" />
    <glyph glyph-name="percent" unicode="%" horiz-adv-x="921" 
d="M767 808l31 -22l-663 -848l-30 21l545 700q-8 -4 -19 -8.5t-37 -11.5q-15 -3 -30.5 -5t-31.5 -2q-25 0 -41 4t-33 15v-10v-7q0 -93 -66 -182.5t-154 -89.5q-70 0 -111 40t-41 106q0 105 68 194t177 89q40 0 67 -15.5t44 -44.5q22 -40 44 -50.5t52 -10.5q62 0 118.5 33
t110.5 105zM416 677q-15 8 -28 23q-8 12 -8 33l-18 6l-20 3q-62 0 -115 -80.5t-53 -172.5q0 -37 17 -60q20 -23 54 -23q67 0 120 79t53 161v13zM616 -20q-72 0 -112.5 40t-40.5 106q0 58 16.5 105.5t53.5 92.5q69 87 168 87q64 0 99 -38.5t35 -108.5q0 -107 -67 -195.5
t-152 -88.5zM622 24q69 0 121 79.5t52 161.5q0 48 -19.5 72.5t-56.5 24.5q-62 0 -115 -82.5t-53 -172.5q0 -37 17 -60q20 -23 54 -23z" />
    <glyph glyph-name="ampersand" unicode="&#x26;" horiz-adv-x="863" 
d="M550 485h219v-9q-38 -9 -59 -30q-22 -18 -47 -57q-19 -30 -51 -94q-27 -57 -75 -120q39 -50 81 -78q42 -24 84 -24q33 0 62.5 21t40.5 57h14q-21 -82 -59 -121.5t-98 -39.5q-46 0 -98 30t-90 82q-52 -54 -110.5 -83t-131.5 -29q-91 0 -140 51.5t-49 127.5q0 72 52.5 136
t173.5 129q-8 18 -15.5 37t-14.5 42q-9 36 -9 65q0 90 45 141t120 51q64 0 106 -38t42 -102q0 -55 -40 -101t-131 -88q29 -68 64 -125t76 -109q36 48 62 106.5t26 96.5q0 28 -12.5 44.5t-37.5 21.5v9zM447 134q-57 69 -90.5 123t-71.5 137q-70 -38 -101.5 -81t-31.5 -92
q0 -65 32 -108.5t86 -52.5l19 -2q14 0 22 2q37 3 70 24q34 18 66 50zM356 480q54 22 86 62q17 20 25.5 44t8.5 52q0 42 -21.5 69t-52.5 27q-39 0 -63 -31q-21 -27 -21 -69q0 -35 9 -74q5 -19 11 -37t18 -43z" />
    <glyph glyph-name="quotesingle" unicode="'" horiz-adv-x="212" 
d="M87 537l-29 138l-8 39v11q0 21 14.5 38.5t41.5 17.5q26 0 41 -17q15 -16 15 -39v-11l-7 -39l-29 -138h-39z" />
    <glyph glyph-name="parenleft" unicode="(" horiz-adv-x="366" 
d="M343 859l13 -15q-83 -77 -127 -190.5t-44 -285.5q0 -173 43 -286.5t128 -190.5l-13 -15q-132 95 -202 224.5t-70 267.5q0 136 69 265t203 226z" />
    <glyph glyph-name="parenright" unicode=")" horiz-adv-x="364" 
d="M21 -128l-13 15q81 76 126.5 191t45.5 286q0 173 -44 286.5t-128 189.5l13 15q132 -94 202.5 -224t70.5 -267t-70 -267.5t-203 -224.5z" />
    <glyph glyph-name="asterisk" unicode="*" horiz-adv-x="484" 
d="M232 602l-25 91q-2 8 -3.5 16t-1.5 14q0 15 4 26q10 25 37 25q26 0 35 -26q5 -14 5 -18v-9q0 -6 -2 -15t-3 -13l-27 -91l18 -10l66 68q11 13 21 19l23 9h9h10q12 -3 21 -11.5t9 -19.5q0 -22 -14 -36t-44 -22l-92 -22v-20l92 -22q25 -6 41.5 -22.5t16.5 -36.5
q0 -14 -7 -21t-23 -10h-10h-10q-12 2 -22.5 8.5t-21.5 19.5l-66 68l-17 -9l27 -92q4 -14 4.5 -17t0.5 -14q0 -13 -5 -26q-9 -25 -35 -25q-27 0 -37 24q-4 9 -4 25v19q4 10 5 14l25 92l-16 9l-65 -68q-13 -13 -22 -19t-23 -9h-10h-9q-15 1 -23 9q-5 7 -7 22q0 21 15.5 36.5
t42.5 22.5l92 22v20l-92 22q-29 6 -43.5 20.5t-14.5 37.5q0 11 8 19.5t22 11.5h9h10l21 -9l23 -19l66 -68z" />
    <glyph glyph-name="plus" unicode="+" horiz-adv-x="774" 
d="M415 79h-57v287h-287v57h287v287h57v-287h287v-57h-287v-287z" />
    <glyph glyph-name="comma" unicode="," horiz-adv-x="326" 
d="M87 -128l-5 20q54 16 84.5 51.5t30.5 80.5v18l-7 19l-20 -11l-21 -4q-28 0 -44 16t-16 45q0 28 20.5 45.5t51.5 17.5q36 0 60 -32q23 -32 23 -82q0 -67 -40.5 -115.5t-116.5 -68.5z" />
    <glyph glyph-name="hyphen" unicode="-" horiz-adv-x="458" 
d="M71 301h315v-72h-315v72z" />
    <glyph glyph-name="period" unicode="." horiz-adv-x="295" 
d="M86 51q0 25 18 43t44 18q23 0 42 -19t19 -42q0 -24 -18.5 -42.5t-42.5 -18.5q-26 0 -44 17.5t-18 43.5z" />
    <glyph glyph-name="slash" unicode="/" horiz-adv-x="498" 
d="M70 -135l-54 21l413 977l53 -22z" />
    <glyph glyph-name="zero" unicode="0" horiz-adv-x="544" 
d="M276 -10q-108 0 -172 111t-64 279q0 176 66 283t167 107q97 0 164 -108t67 -282q0 -177 -65 -283.5t-163 -106.5zM272 25q62 0 93 84t31 271t-30.5 271t-93.5 84t-97 -81q-16 -40 -24 -108t-8 -166q0 -195 31 -275t98 -80z" />
    <glyph glyph-name="one" unicode="1" 
d="M137 674l199 96v-679q0 -39 21 -58t72 -19h18v-14h-321v14h20q43 0 66 16q25 20 25 58v533q0 26 -11 41q-9 14 -31 14q-10 0 -20 -5l-30 -14z" />
    <glyph glyph-name="two" unicode="2" horiz-adv-x="541" 
d="M155 85h233q39 0 66 12q24 14 43 46l12 -5l-52 -138h-421l136 152q124 137 164 217.5t40 153.5q0 37 -10 64.5t-35 53.5q-45 47 -111 47q-52 0 -93 -35t-56 -89l-18 4q16 89 69 145.5t134 56.5q94 0 154.5 -59t60.5 -155q0 -90 -53 -178q-49 -85 -188 -220z" />
    <glyph glyph-name="three" unicode="3" horiz-adv-x="537" 
d="M108 602l-18 7q15 69 61.5 115t118.5 46q74 0 124.5 -44.5t50.5 -111.5q0 -43 -24.5 -86.5t-77.5 -85.5q63 -15 98.5 -72t35.5 -130q0 -102 -80.5 -175.5t-180.5 -73.5q-72 0 -111.5 15.5t-39.5 41.5q0 20 12.5 34.5t33.5 14.5q11 0 26 -6q5 -2 11.5 -5.5t15.5 -11.5
t19 -15.5t25.5 -13t36.5 -5.5q67 0 108.5 43t41.5 106q0 82 -52.5 137.5t-132.5 55.5h-20v12q75 12 121.5 62.5t46.5 108.5q0 56 -32.5 90.5t-87.5 34.5q-44 0 -78 -23t-52 -65z" />
    <glyph glyph-name="four" unicode="4" horiz-adv-x="545" 
d="M28 205v89l331 476h57v-486h99v-79h-99v-205h-94v205h-294zM75 284h247v356z" />
    <glyph glyph-name="five" unicode="5" horiz-adv-x="544" 
d="M89 473l131 287h264l-42 -91h-225l-50 -109q141 -15 226 -95t85 -201q0 -115 -77.5 -194t-186.5 -79q-79 0 -116.5 15.5t-37.5 46.5q0 19 13.5 31.5t33.5 12.5q15 0 26 -4.5t29 -18.5q26 -22 43.5 -28t37.5 -6q67 0 113 49.5t46 125.5q0 108 -91 179q-48 38 -102 58.5
t-120 20.5z" />
    <glyph glyph-name="six" unicode="6" horiz-adv-x="545" 
d="M490 807l3 -23q-131 -24 -214 -118.5t-113 -243.5q39 27 73 41t65 14q84 0 139.5 -62t55.5 -164q0 -111 -63 -186t-161 -75q-108 0 -168.5 91t-60.5 238q0 202 123 331t321 157zM159 382l-5 -42v-60q0 -123 37 -185.5t98 -62.5q52 0 82.5 41.5t30.5 114.5
q0 107 -36.5 172.5t-98.5 65.5q-27 0 -56 -12t-52 -32z" />
    <glyph glyph-name="seven" unicode="7" horiz-adv-x="544" 
d="M401 663h-207q-52 0 -83 -22t-51 -71l-16 8l70 182h386l-267 -760h-64z" />
    <glyph glyph-name="eight" unicode="8" horiz-adv-x="543" 
d="M217 381q-74 55 -105.5 103t-31.5 109q0 82 55.5 129.5t136.5 47.5q82 0 136.5 -48t54.5 -123q0 -51 -30.5 -92.5t-111.5 -91.5q95 -80 126 -130.5t31 -108.5q0 -90 -60 -138q-29 -23 -68 -35.5t-88 -12.5q-89 0 -143 50.5t-54 128.5q0 59 35 108t117 104zM296 436
q46 28 70.5 70.5t24.5 98.5q0 64 -35 99.5t-84 35.5q-47 0 -78 -34.5t-31 -83.5q0 -42 24 -81q26 -36 109 -105zM240 359q-46 -37 -71.5 -87.5t-25.5 -105.5q0 -62 36 -102t96 -40q53 0 87 30.5t34 84.5q0 39 -25 79q-11 18 -44 54.5t-87 86.5z" />
    <glyph glyph-name="nine" unicode="9" horiz-adv-x="545" 
d="M55 -47l-4 23q128 24 211.5 115.5t116.5 246.5q-44 -31 -75 -43t-63 -12q-85 0 -140 62t-55 164q0 110 62 185.5t162 75.5q106 0 167.5 -91.5t61.5 -237.5q0 -202 -124.5 -331t-319.5 -157zM387 378l4 41v61q0 123 -38 185.5t-97 62.5q-50 0 -81.5 -37.5t-31.5 -118.5
q0 -109 36 -173.5t99 -64.5q17 0 29 2t28 9q28 12 52 33z" />
    <glyph glyph-name="colon" unicode=":" horiz-adv-x="295" 
d="M86 52q0 25 18 43t44 18q23 0 42 -19t19 -42q0 -25 -18.5 -43.5t-42.5 -18.5q-26 0 -44 17.5t-18 44.5zM86 478q0 25 18 43t44 18q24 0 42.5 -18.5t18.5 -42.5t-18 -45q-20 -17 -43 -17q-26 0 -45 17q-17 20 -17 45z" />
    <glyph glyph-name="semicolon" unicode=";" horiz-adv-x="342" 
d="M109 522q0 25 18 43t44 18q24 0 42.5 -18.5t18.5 -42.5t-18 -45q-20 -17 -43 -17q-26 0 -45 17q-17 20 -17 45zM95 -139l-5 19q54 17 84.5 52t30.5 80v18l-8 19l-19 -11l-22 -4q-27 0 -43 16t-16 45q0 28 20.5 45.5t51.5 17.5q36 0 60 -32q23 -31 23 -82
q0 -66 -40.5 -115t-116.5 -68z" />
    <glyph glyph-name="less" unicode="&#x3c;" horiz-adv-x="663" 
d="M57 395l522 335l27 -45l-454 -289l455 -290l-27 -45z" />
    <glyph glyph-name="equal" unicode="=" horiz-adv-x="773" 
d="M57 272v57h660v-57h-660zM57 459v57h660v-57h-660z" />
    <glyph glyph-name="greater" unicode="&#x3e;" horiz-adv-x="714" 
d="M632 395l-522 -334l-28 45l455 290l-454 289l27 45z" />
    <glyph glyph-name="question" unicode="?" horiz-adv-x="484" 
d="M226 206h-17q0 51 12.5 96.5t41.5 91.5q61 94 61 186q0 76 -30 116.5t-75 40.5q-34 0 -64 -21q-25 -22 -25 -50q0 -11 2 -17.5t16 -23.5l12 -23q3 -7 5 -21q0 -18 -15 -31t-32 -13q-27 0 -46 24q-15 25 -15 64q0 53 52.5 99t140.5 46q79 0 128.5 -52.5t49.5 -132.5
q0 -47 -19.5 -84.5t-82 -103t-84.5 -105.5q-16 -34 -16 -86zM160 52q0 24 18.5 42.5t42.5 18.5t42.5 -18.5t18.5 -42.5t-18 -45q-20 -17 -43 -17q-25 0 -44 17q-17 20 -17 45z" />
    <glyph glyph-name="at" unicode="@" horiz-adv-x="883" 
d="M590 592h79l-85 -296l-6 -24l-1 -18q0 -22 13.5 -36t43.5 -14q60 0 106 68q21 33 32.5 73t11.5 88q0 131 -92.5 212.5t-229.5 81.5q-153 0 -251.5 -105.5t-98.5 -260.5q0 -145 92.5 -236.5t235.5 -91.5q59 0 106.5 9.5t93.5 27.5l14 -40q-43 -17 -99 -30q-21 -4 -53 -7
t-62 -3q-176 0 -279.5 111t-103.5 260q0 168 113.5 288.5t290.5 120.5q156 0 261 -91.5t105 -245.5q0 -115 -59 -193t-148 -78q-50 0 -76.5 24.5t-35.5 83.5h-4q-46 -52 -90.5 -77t-92.5 -25q-49 0 -76 40.5t-27 111.5q0 107 88.5 194t182.5 87q31 0 53 -11q22 -8 36 -31z
M370 235q67 0 128 84q30 41 45.5 82.5t15.5 83.5q0 38 -17.5 59t-51.5 21q-62 0 -123.5 -74.5t-61.5 -156.5q0 -48 17 -73.5t48 -25.5z" />
    <glyph glyph-name="A" unicode="A" horiz-adv-x="758" 
d="M-20 0v14q30 3 52 28.5t46 75.5l289 652h10l290 -652q27 -64 47 -82q20 -17 64 -22v-14h-304v14q41 7 59 17.5t18 29.5q0 15 -2 22l-5 21l-64 145h-287l-63 -144l-10 -30l-1 -12q0 -23 21 -38q20 -11 57 -11v-14h-217zM337 579l-124 -284h248z" />
    <glyph glyph-name="B" unicode="B" horiz-adv-x="731" 
d="M50 760h316q156 0 218.5 -50t62.5 -139q0 -66 -40.5 -115.5t-106.5 -57.5v-6q40 0 71.5 -14.5t59.5 -43.5q50 -52 50 -123q0 -95 -74.5 -153t-194.5 -58h-362v14h19q46 0 68.5 18t22.5 59v578q0 40 -24 58q-22 19 -67 19h-19v14zM281 375v-319l44 -10l47 -3
q79 0 130.5 44.5t51.5 120.5q0 79 -60 124q-30 22 -67 33.5t-85 11.5h-28q-21 0 -33 -2zM281 716v-297l38 -5h31q84 0 130 44t46 121q0 64 -53.5 102t-135.5 38h-25z" />
    <glyph glyph-name="C" unicode="C" horiz-adv-x="822" 
d="M724 764l12 -242l-14 -2q-20 91 -87 149t-165 58q-123 0 -203 -90q-39 -45 -58.5 -106.5t-19.5 -143.5q0 -162 82 -251t214 -89q38 0 69 7t65 26q66 32 123 103l24 -21q-64 -88 -142 -131q-40 -21 -80.5 -31t-90.5 -10q-165 0 -280.5 112.5t-115.5 281.5q0 168 116.5 277
t287.5 109q78 0 138.5 -23t76.5 -23q11 0 21 8.5t15 31.5h12z" />
    <glyph glyph-name="D" unicode="D" horiz-adv-x="900" 
d="M50 760h339q228 0 344.5 -105t116.5 -270q0 -176 -121 -280.5t-298 -104.5h-381v14h19q46 0 68.5 18t22.5 59v578q0 40 -24 58q-22 19 -67 19h-19v14zM281 705v-649q24 -8 51.5 -11.5t90.5 -3.5q135 0 215 95.5t80 261.5q0 148 -89.5 234t-229.5 86h-29.5t-35.5 -4z" />
    <glyph glyph-name="E" unicode="E" horiz-adv-x="751" 
d="M629 760l9 -158l-15 -2q-12 53 -40.5 81t-92.5 28h-209v-286h194q47 0 65 27q9 13 14.5 35t5.5 47h14v-264h-14q0 53 -20 81q-19 28 -65 28h-194v-326h209q78 0 124 31t74 112l13 -4l-55 -190h-596v14h19q46 0 68.5 18t22.5 59v578q0 40 -24 58q-22 19 -67 19h-19v14h579
z" />
    <glyph glyph-name="F" unicode="F" horiz-adv-x="742" 
d="M678 760l14 -169h-14q-12 63 -48 89q-37 29 -105 29h-244v-290h200q53 0 73 24q12 12 18.5 33.5t6.5 51.5h14v-264h-14q0 56 -25 83q-20 26 -73 26h-200v-282q0 -39 22 -60q23 -17 70 -17h18v-14h-341v14h19q46 0 68.5 18t22.5 59v578q0 40 -24 58q-22 19 -67 19h-19v14
h628z" />
    <glyph glyph-name="G" unicode="G" horiz-adv-x="937" 
d="M758 765l15 -226h-15q-33 88 -109 139.5t-169 51.5q-121 0 -206 -90.5t-85 -248.5q0 -154 80.5 -254.5t216.5 -100.5q53 0 96 12.5t79 41.5v228q0 40 -23 58q-23 19 -68 19h-8v14h319v-14h-8q-46 0 -69 -19q-22 -18 -22 -58v-243q-67 -40 -146 -62.5t-152 -22.5
q-187 0 -307 101.5t-120 277.5q0 177 121.5 289t302.5 112q83 0 144 -25t80 -25q16 0 26 11t13 34h14z" />
    <glyph glyph-name="H" unicode="H" horiz-adv-x="910" 
d="M281 420h348v249q0 40 -24 58q-22 19 -67 19h-19v14h341v-14h-18q-47 0 -69 -19q-23 -18 -23 -58v-578q0 -39 22 -60q23 -17 70 -17h18v-14h-341v14h19q46 0 68.5 18t22.5 59v278h-348v-278q0 -39 22 -60q23 -17 70 -17h18v-14h-341v14h19q46 0 68.5 18t22.5 59v578
q0 40 -24 58q-22 19 -67 19h-19v14h341v-14h-18q-47 0 -69 -19q-23 -18 -23 -58v-249z" />
    <glyph glyph-name="I" unicode="I" horiz-adv-x="441" 
d="M50 760h341v-14h-18q-47 0 -69 -19q-23 -18 -23 -58v-578q0 -39 22 -60q23 -17 70 -17h18v-14h-341v14h19q46 0 68.5 18t22.5 59v578q0 40 -24 58q-22 19 -67 19h-19v14z" />
    <glyph glyph-name="J" unicode="J" 
d="M97 760h341v-14h-18q-47 0 -69.5 -18.5t-22.5 -58.5v-424q0 -111 -52.5 -183t-148.5 -72q-54 0 -87 26t-33 58q0 23 16 38t38 15q18 0 32.5 -8.5t27.5 -26.5q38 -55 42 -56h8q17 0 26.5 20.5t9.5 65.5v547q0 40 -24 58q-22 19 -67 19h-19v14z" />
    <glyph glyph-name="K" unicode="K" horiz-adv-x="903" 
d="M50 760h341v-14h-18q-47 0 -69 -19q-23 -18 -23 -58v-578q0 -39 22 -60q23 -17 70 -17h18v-14h-341v14h19q46 0 68.5 18t22.5 59v578q0 40 -24 58q-22 19 -67 19h-19v14zM508 760h260v-14q-36 -4 -65.5 -17.5t-252.5 -245.5l-53 -55l250 -275q64 -69 110 -103
q43 -30 96 -36v-14h-339v14q47 4 55 13q7 5 8 20l-3 12q-2 8 -23 31l-271 305q60 47 172.5 168t112.5 153q0 14 -10 20.5t-47 9.5v14z" />
    <glyph glyph-name="L" unicode="L" horiz-adv-x="751" 
d="M281 51h209q78 0 124 31t74 112l13 -4l-55 -190h-596v14h19q46 0 68.5 18t22.5 59v578q0 40 -24 58q-22 19 -67 19h-19v14h341v-14h-18q-47 0 -69 -19q-23 -18 -23 -58v-618z" />
    <glyph glyph-name="M" unicode="M" horiz-adv-x="1073" 
d="M280 760l257 -571l256 571h230v-14h-18q-47 0 -69 -19q-23 -18 -23 -58v-578q0 -39 22 -60q23 -17 70 -17h18v-14h-341v14h19q46 0 68.5 18t22.5 59v549l-287 -640h-10l-285 642v-551q0 -40 23 -60q22 -17 69 -17h18v-14h-270v14h19q46 0 68.5 18t22.5 59v578
q0 40 -24 58q-22 19 -67 19h-19v14h230z" />
    <glyph glyph-name="N" unicode="N" horiz-adv-x="894" 
d="M242 759l473 -555v465q0 40 -24 58q-22 19 -67 19h-19v14h268v-14h-18q-47 0 -69 -19q-23 -18 -23 -58v-679h-14l-534 619v-518q0 -40 23 -60q22 -17 69 -17h18v-14h-268v14h19q46 0 68.5 18t22.5 59v577q-33 41 -70 60q-34 18 -76 18v14z" />
    <glyph glyph-name="O" unicode="O" horiz-adv-x="841" 
d="M410 -10q-152 0 -252.5 114.5t-100.5 278.5q0 163 106 275t269 112q152 0 252.5 -113t100.5 -280q0 -173 -108.5 -280t-266.5 -107zM416 34q108 0 172.5 95t64.5 247q0 162 -65 256t-162 94q-108 0 -172.5 -95.5t-64.5 -246.5q0 -157 62.5 -253.5t164.5 -96.5z" />
    <glyph glyph-name="P" unicode="P" horiz-adv-x="706" 
d="M50 760h304q149 0 225.5 -50t76.5 -152q0 -90 -67.5 -154.5t-188.5 -64.5h-22q-18 3 -29.5 4.5t-27 5t-40.5 10.5v-268q0 -39 22 -60q23 -17 70 -17h18v-14h-341v14h19q46 0 68.5 18t22.5 59v578q0 40 -24 58q-22 19 -67 19h-19v14zM281 712v-314l42 -11l47 -3
q68 0 111 43t43 118q0 85 -48 127.5t-128 42.5h-20.5h-18.5z" />
    <glyph glyph-name="Q" unicode="Q" horiz-adv-x="841" 
d="M769 -179v-14q-139 0 -260.5 53t-186.5 140q-127 33 -196 139t-69 244q0 173 109 280q54 54 119.5 80.5t146.5 26.5q152 0 252.5 -115.5t100.5 -278.5q0 -132 -73.5 -237t-200.5 -139q40 -80 109 -128q38 -25 73 -38t76 -13zM416 34q106 0 171.5 95t65.5 247
q0 76 -14.5 136.5t-45.5 113.5q-61 100 -167 100q-107 0 -172 -95.5t-65 -246.5q0 -76 14.5 -136.5t45.5 -113.5q61 -100 167 -100z" />
    <glyph glyph-name="R" unicode="R" horiz-adv-x="866" 
d="M50 760h345q127 0 192 -46.5t65 -146.5q0 -74 -49 -128t-133 -70l208 -267q42 -53 71 -71q15 -8 31.5 -12.5t35.5 -4.5v-14h-208l-262 358h-65v-267q0 -39 22 -60q23 -17 70 -17h18v-14h-341v14h19q46 0 68.5 18t22.5 59v578q0 40 -24 58q-22 19 -67 19h-19v14zM281 712
v-310l15 -1h32q90 0 145 43t55 121q0 71 -46.5 114.5t-122.5 43.5l-41 -3q-9 -2 -17.5 -3t-19.5 -5z" />
    <glyph glyph-name="S" unicode="S" horiz-adv-x="636" 
d="M509 770v-245h-14q0 78 -62 142q-56 59 -133 59q-52 0 -87.5 -31.5t-35.5 -72.5q0 -37 27 -73q28 -35 174 -120q99 -58 138.5 -117.5t39.5 -130.5q0 -81 -68 -137q-33 -26 -77 -40t-97 -14q-52 0 -98 17q-22 8 -36 12.5t-31 8.5h-11h-7q-14 -3 -24 -13t-13 -25h-14
l-1 257h14q15 -96 71.5 -153t135.5 -57q61 0 103.5 29.5t42.5 84.5q0 51 -36 95t-144.5 104.5t-147.5 111.5t-39 116q0 86 63.5 139t155.5 53q52 0 101 -18q22 -8 35.5 -12.5t23.5 -5.5q13 0 22.5 9.5t14.5 26.5h14z" />
    <glyph glyph-name="T" unicode="T" horiz-adv-x="707" 
d="M30 760h647l9 -172h-14q0 55 -37 88t-100 33h-121v-618q0 -40 23 -60q22 -17 69 -17h18v-14h-341v14h19q46 0 68.5 18t22.5 59v618h-121q-64 0 -100 -33q-17 -15 -27 -37t-10 -51h-14z" />
    <glyph glyph-name="U" unicode="U" horiz-adv-x="917" 
d="M43 760h341v-14h-18q-47 0 -69 -19q-23 -18 -23 -58v-400q0 -123 57 -176t162 -53q102 0 161 58.5t59 180.5v390q0 40 -24 58q-22 19 -67 19h-19v14h270v-14h-18q-47 0 -69 -19q-23 -18 -23 -58v-411q0 -122 -73.5 -195t-208.5 -73q-159 0 -243.5 72t-84.5 209v398
q0 40 -24 58q-22 19 -67 19h-19v14z" />
    <glyph glyph-name="V" unicode="V" horiz-adv-x="740" 
d="M-20 760h310v-14q-16 0 -33.5 -0.5t-34 -8.5t-16.5 -24q0 -15 2 -23l9 -24l208 -481l186 469l7 24l4 25q0 21 -17 32t-57 11v14h217v-14q-35 0 -58 -27q-24 -23 -48 -83l-258 -646h-13l-284 646q-30 69 -54.5 89.5t-69.5 20.5v14z" />
    <glyph glyph-name="W" unicode="W" horiz-adv-x="1019" 
d="M-17 760h284v-14q-41 0 -60 -21q-9 -9 -9 -21q0 -9 5 -24l172 -453l125 334l-38 96q-19 49 -41 69t-58 20v14h290v-14q-36 0 -55.5 -12.5t-19.5 -30.5q0 -17 2 -28t7 -23l163 -424l145 421l8 29l4 25q0 19 -18.5 31t-56.5 12v14h206l1 -14q-31 -3 -52 -25t-42 -84
l-218 -647h-10l-188 493l-182 -493h-12l-263 688q-15 37 -33.5 52.5t-54.5 15.5z" />
    <glyph glyph-name="X" unicode="X" horiz-adv-x="770" 
d="M14 760h334v-14q-43 0 -59.5 -9.5t-16.5 -26.5q0 -11 2 -18l13 -20l132 -206l145 189l18 31q6 13 6 24q0 15 -19 27q-18 9 -50 9v14h234v-14q-36 -4 -64 -22q-22 -14 -66 -71l-175 -229l196 -303q31 -50 64.5 -76t69.5 -31v-14h-310v14q47 0 61 7.5t14 21.5q0 10 -3.5 22
t-10.5 22l-157 240l-191 -249l-9 -16q-2 -5 -2 -15q0 -15 16 -24t55 -9v-14h-234v14q29 0 53 15t65 66l220 277l-182 274q-32 47 -70 71q-36 25 -79 29v14z" />
    <glyph glyph-name="Y" unicode="Y" horiz-adv-x="749" 
d="M-21 760h319v-14h-14q-30 0 -48 -9q-12 -9 -14 -26l3 -20q2 -7 4.5 -11t9.5 -14l174 -280l178 292l5 15l5 19q0 17 -14.5 25.5t-42.5 8.5h-16v14h243v-14q-19 0 -37.5 -7.5t-39.5 -23.5q-34 -26 -66 -78l-193 -317v-229q0 -39 22 -60q23 -17 70 -17h18v-14h-341v14h19
q46 0 68.5 18t22.5 59v230l-215 345q-28 45 -55 61q-16 10 -31 14.5t-34 4.5v14z" />
    <glyph glyph-name="Z" unicode="Z" horiz-adv-x="737" 
d="M117 760h577l-489 -709h308q75 0 117.5 32.5t63.5 113.5h15l-39 -197h-642l495 709h-245q-84 0 -116.5 -25.5t-44.5 -105.5h-15z" />
    <glyph glyph-name="bracketleft" unicode="[" horiz-adv-x="384" 
d="M114 844h210v-29h-114v-896h114v-29h-210v954z" />
    <glyph glyph-name="backslash" unicode="\" horiz-adv-x="472" 
d="M413 -135l-413 976l54 22l413 -976z" />
    <glyph glyph-name="bracketright" unicode="]" horiz-adv-x="385" 
d="M271 840v-954h-210v29h114v896h-114v29h210z" />
    <glyph glyph-name="asciicircum" unicode="^" horiz-adv-x="539" 
d="M270 770l213 -287h-56l-157 210l-157 -210h-56z" />
    <glyph glyph-name="underscore" unicode="_" horiz-adv-x="594" 
d="M0 -201v49h594v-49h-594z" />
    <glyph glyph-name="grave" unicode="`" horiz-adv-x="280" 
d="M224 563h-27l-125 125q-7 6 -14 17q-3 10 -3 27q0 18 17.5 31t41.5 13q14 0 26 -10.5t23 -34.5z" />
    <glyph glyph-name="a" unicode="a" horiz-adv-x="543" 
d="M496 83l11 -11q-33 -42 -64 -62t-59 -20q-27 0 -44 23.5t-17 66.5q-45 -45 -88.5 -67.5t-88.5 -22.5q-43 0 -76.5 35.5t-33.5 87.5q0 67 55 112.5t232 105.5v68q0 47 -25 73.5t-72 26.5q-36 0 -58.5 -21t-22.5 -49l3 -18v-16q0 -21 -13.5 -33t-33.5 -12t-31.5 15.5
t-11.5 35.5q0 55 56 92t132 37q79 0 124 -31t45 -105v-312q0 -13 7 -19.5t21 -7.5q13 0 27.5 8t25.5 20zM323 106v194q-121 -43 -159.5 -77t-38.5 -81q0 -40 21 -66q22 -26 64 -26q22 0 49 13t64 43z" />
    <glyph glyph-name="b" unicode="b" horiz-adv-x="530" 
d="M-14 708l174 67v-347q30 47 69.5 74.5t86.5 27.5q84 0 142 -71.5t58 -181.5q0 -130 -81.5 -209t-183.5 -79q-45 0 -89.5 16.5t-93.5 55.5v562q0 40 -11 58.5t-30 18.5q-12 0 -19 -2l-17 -5zM160 382v-291q18 -28 50 -47q17 -8 31 -12t33 -4q66 0 108 68t42 153
q0 90 -44 146t-105 56q-34 0 -65 -18.5t-50 -50.5z" />
    <glyph glyph-name="c" unicode="c" 
d="M455 197l20 -6q-25 -102 -80 -151.5t-136 -49.5q-103 0 -163 79.5t-60 191.5q0 113 69 191t177 78q64 0 117 -31t53 -80q0 -29 -13.5 -42.5t-35.5 -13.5q-23 0 -38 12q-12 11 -18 47.5t-25 54.5t-53 18q-64 0 -102 -56.5t-38 -143.5q0 -103 46.5 -160t126.5 -57
q49 0 92.5 32t60.5 87z" />
    <glyph glyph-name="d" unicode="d" horiz-adv-x="566" 
d="M316 708l174 67v-632q0 -30 1.5 -40t6.5 -21q9 -17 30 -17h20l19 8l5 -13l-174 -70v79q-37 -40 -82 -59.5t-84 -19.5q-76 0 -136 70.5t-60 191.5q0 113 71 195.5t169 82.5q36 0 66 -11q30 -9 56 -28v132q0 40 -11 58.5t-30 18.5q-12 0 -21.5 -2t-14.5 -5zM398 112v273
q0 45 -35 76.5t-86 31.5q-61 0 -102 -61t-41 -154q0 -88 42 -150.5t115 -62.5q31 0 57.5 10.5t49.5 36.5z" />
    <glyph glyph-name="e" unicode="e" horiz-adv-x="501" 
d="M448 324h-332q0 -60 9.5 -104t34.5 -78q51 -68 126 -68q52 0 95.5 34.5t66.5 93.5l17 -6q-34 -105 -89.5 -155.5t-130.5 -50.5q-91 0 -150 77t-59 202q0 105 59.5 183t161.5 78q85 0 138 -56t53 -150zM116 359h219q0 57 -31 93.5t-77 36.5q-44 0 -75 -34q-28 -33 -36 -96
z" />
    <glyph glyph-name="f" unicode="f" horiz-adv-x="464" 
d="M111 481h-82v39h82v36q0 96 54.5 157t135.5 61q54 0 98.5 -25t44.5 -63q0 -18 -13 -30t-29 -12q-17 0 -29 7t-26 28q-24 34 -40 44t-36 10q-33 0 -52 -25q-16 -26 -16 -114v-74h105v-39h-105v-381q0 -49 18 -67.5t61 -18.5h11v-14h-272v14h11q41 0 60 19t19 67v381z" />
    <glyph glyph-name="g" unicode="g" horiz-adv-x="539" 
d="M380 553l126 4l-4 -47h-87q12 -18 22 -41t10 -45q0 -71 -47 -120t-136 -49h-42l-32 10q-17 -13 -27 -27.5t-12 -28.5q0 -12 13 -21q16 -7 131 -7q130 0 172 -32t42 -96q0 -82 -81.5 -133.5t-182.5 -51.5q-54 0 -90.5 7t-68.5 26q-55 31 -55 77q0 21 12 39.5t87 88.5
q-24 6 -38 24t-14 36q0 22 21 50.5t61 60.5q-41 17 -64.5 54.5t-23.5 85.5q0 77 56 125.5t132 48.5q29 0 59.5 -10t60.5 -28zM160 99q-22 -24 -35 -46q-9 -21 -9 -40q0 -31 40 -52q43 -21 115 -21q99 0 151.5 25t52.5 69q0 24 -7.5 33.5t-110.5 20.5t-197 11zM270 286
q42 0 62.5 27.5t20.5 72.5q0 80 -32.5 126.5t-77.5 46.5q-34 0 -57.5 -24.5t-23.5 -73.5q0 -70 28 -122.5t80 -52.5z" />
    <glyph glyph-name="h" unicode="h" horiz-adv-x="611" 
d="M22 708l174 67v-359q52 58 92.5 86t89.5 28q57 0 93 -43.5t36 -106.5v-280q0 -49 18 -67.5t61 -18.5h11v-14h-258v14h10q30 0 49 15q17 18 17 71v262q0 48 -19 74t-63 26q-35 0 -66.5 -18t-70.5 -57v-287q0 -52 16 -70q19 -16 50 -16h10v-14h-258v14h11q41 0 60 19t19 67
v523q0 40 -10.5 58.5t-30.5 18.5q-12 0 -21.5 -2t-14.5 -5z" />
    <glyph glyph-name="i" unicode="i" horiz-adv-x="314" 
d="M203 532v-432q0 -49 18 -67.5t61 -18.5h11v-14h-272v14h11q41 0 60 19t19 67v281q0 39 -10 57t-31 21l-19 -3q-10 0 -17 -4l-5 14zM96 703q0 22 17 39.5t40 17.5q22 0 39.5 -17.5t17.5 -39.5q0 -24 -18 -41t-39 -17q-23 0 -41 16q-16 19 -16 42z" />
    <glyph glyph-name="j" unicode="j" horiz-adv-x="291" 
d="M212 592v-489q0 -115 -54 -176.5t-146 -61.5q-40 0 -62 16q-11 7 -17 17.5t-6 23.5q0 17 12 29q13 10 31 10q29 0 58.5 -27t45.5 -27q21 0 33.5 28t12.5 154v352q0 40 -11 59t-30 19q-12 0 -21.5 -2t-14.5 -5l-5 14zM105 763q0 22 17 39.5t40 17.5q22 0 39.5 -17.5
t17.5 -39.5q0 -24 -18 -41t-39 -17q-23 0 -41 16q-16 19 -16 42z" />
    <glyph glyph-name="k" unicode="k" horiz-adv-x="573" 
d="M22 708l174 67v-483h5l105 111q52 56 55 63l5 14q0 13 -11.5 19.5t-41.5 6.5v14h211v-14q-33 0 -67 -18q-29 -16 -62 -50l-117 -122l174 -229q30 -41 53 -54.5t54 -18.5v-14h-229v14h14q11 0 18 5t8 14l-4 14l-7 17l-157 212h-6v-176q0 -55 14 -70.5t45 -15.5h9v-14h-250
v14h11q41 0 60 19t19 67v523q0 40 -10.5 58.5t-30.5 18.5q-12 0 -21.5 -2t-14.5 -5z" />
    <glyph glyph-name="l" unicode="l" horiz-adv-x="300" 
d="M22 708l174 67v-675q0 -49 18 -67.5t61 -18.5h11v-14h-272v14h11q41 0 60 19t19 67v523q0 40 -10.5 58.5t-30.5 18.5q-12 0 -21.5 -2t-14.5 -5z" />
    <glyph glyph-name="m" unicode="m" horiz-adv-x="927" 
d="M203 533v-103q68 63 103 83q19 10 36.5 15t36.5 5q51 0 85 -30t41 -81q58 60 96.5 85.5t75.5 25.5q71 0 105.5 -39t34.5 -122v-271q0 -50 18 -68.5t61 -18.5h11v-14h-258v14h10q30 0 49 15q17 18 17 72v267q0 50 -20 74q-19 23 -63 23q-16 0 -30 -4t-35 -16
q-34 -18 -67 -51v-293q0 -53 16 -71q19 -16 50 -16h10v-14h-244v14h10q30 0 48 15q18 19 18 72v268q0 45 -22.5 70.5t-63.5 25.5q-28 0 -61.5 -18.5t-67.5 -51.5v-294q0 -53 16 -71q19 -16 50 -16h10v-14h-258v14h11q41 0 60 19t19 67v281q0 39 -10 57t-31 21l-19 -3
q-10 0 -17 -4l-5 16z" />
    <glyph glyph-name="n" unicode="n" horiz-adv-x="624" 
d="M203 533v-117q51 59 92 88t90 29q59 0 94 -44t35 -114v-274q0 -50 18 -68.5t61 -18.5h11v-14h-258v14h10q30 0 49 15q17 18 17 72v263q0 47 -18.5 74t-63.5 27q-34 0 -67.5 -19t-69.5 -56v-289q0 -50 15.5 -68.5t51.5 -18.5h10v-14h-259v14h11q41 0 60 19t19 67v281
q0 39 -10 57t-31 21l-19 -3q-10 0 -17 -4l-5 16z" />
    <glyph glyph-name="o" unicode="o" horiz-adv-x="580" 
d="M290 -10q-112 0 -183 75.5t-71 193.5q0 114 72.5 192.5t181.5 78.5q110 0 182 -76.5t72 -193.5q0 -114 -72.5 -192t-181.5 -78zM143 266q0 -99 47.5 -168t116.5 -69q62 0 95 55q17 28 26 74t9 108q0 90 -50 157.5t-117 67.5q-64 0 -95.5 -61.5t-31.5 -163.5z" />
    <glyph glyph-name="p" unicode="p" horiz-adv-x="573" 
d="M182 589v-102q42 53 81.5 77.5t86.5 24.5q81 0 136 -70t55 -192q0 -114 -71.5 -197.5t-168.5 -83.5q-17 0 -30.5 2t-32.5 8q-28 7 -56 28v-121q0 -53 20 -69q25 -18 65 -18h20v-14h-287v14h11q41 0 60 19.5t19 66.5v475q0 40 -10.5 59t-30.5 19q-12 0 -21.5 -2t-14.5 -5
l-5 17zM182 445v-253q0 -49 34 -80q35 -29 85 -29q62 0 100.5 60t38.5 151q0 104 -40.5 162t-111.5 58q-28 0 -55.5 -18.5t-50.5 -50.5z" />
    <glyph glyph-name="q" unicode="q" horiz-adv-x="582" 
d="M492 592v-630q0 -47 19 -66.5t60 -19.5h11v-14h-287v14h20q40 0 62.5 16.5t22.5 69.5v174q-36 -42 -78 -64q-20 -10 -39.5 -15t-42.5 -5q-86 0 -145 67t-59 187q0 110 70 195t170 85q38 0 72 -10q37 -8 64 -24zM400 177v257q0 55 -29 83q-14 15 -33.5 22.5t-44.5 7.5
q-74 0 -117.5 -59t-43.5 -151q0 -99 42.5 -152.5t115.5 -53.5q32 0 59 10t51 36z" />
    <glyph glyph-name="r" unicode="r" horiz-adv-x="455" 
d="M203 532v-95q24 41 57.5 68t68.5 27q30 0 50 -16t20 -42t-13 -40.5t-34 -14.5q-25 0 -31 18q-5 20 -48 20q-17 0 -34 -18q-17 -14 -36 -45v-294q0 -49 18 -67.5t61 -18.5h11v-14h-272v14h11q41 0 60 19t19 67v280q0 40 -10.5 59t-30.5 19q-12 0 -21.5 -2t-14.5 -5l-5 16z
" />
    <glyph glyph-name="s" unicode="s" horiz-adv-x="409" 
d="M338 513l3 -154h-15q0 29 -10.5 52.5t-31.5 44.5q-36 39 -90 39q-36 0 -62.5 -21t-26.5 -55q0 -17 4.5 -28.5t169.5 -118.5q43 -26 68.5 -63.5t25.5 -87.5q0 -56 -47.5 -93t-121.5 -37h-26l-54 14l-26 8l-9 1q-11 0 -17 -3.5t-12 -12.5h-18l-3 184h15q10 -71 49 -114
t101 -43q42 0 65.5 21t23.5 52q0 29 -20.5 54.5t-111.5 76.5q-78 44 -102 78q-23 36 -23 81q0 56 44.5 99t108.5 43q43 0 71.5 -13t47.5 -13l7 2l11 7h12z" />
    <glyph glyph-name="t" unicode="t" horiz-adv-x="341" 
d="M178 520h113v-39h-113v-327q0 -58 17.5 -81t52.5 -23q17 0 35.5 10t39.5 34l10 -9q-35 -46 -70.5 -70.5t-72.5 -24.5q-58 0 -81 35.5t-23 112.5v343h-79v21q53 19 96.5 63.5t60.5 107.5h14v-153z" />
    <glyph glyph-name="u" unicode="u" horiz-adv-x="606" 
d="M493 520v-377q0 -43 9 -62q11 -16 32 -16l18 1l17 6l5 -14l-173 -68v114q-51 -60 -93 -87t-90 -27q-61 0 -94.5 38t-33.5 120v272q0 45 -18 66q-21 20 -61 20h-11v14h182v-362q0 -59 19 -79.5t63 -20.5q29 0 66.5 19.5t70.5 55.5v287q0 51 -17.5 68.5t-54.5 17.5h-11v14
h175z" />
    <glyph glyph-name="v" unicode="v" horiz-adv-x="484" 
d="M248 -10l-179 449q-13 32 -33.5 47.5t-49.5 18.5v15h227v-15q-34 -3 -44.5 -11t-10.5 -27v-11l6 -17l113 -285l113 291l6 15l2 16q0 11 -10.5 20t-28.5 9h-11v15h150v-15q-23 -3 -35 -15q-12 -9 -25 -45l-179 -455h-11z" />
    <glyph glyph-name="w" unicode="w" horiz-adv-x="733" 
d="M233 -10l-168 443q-14 35 -34 55q-17 14 -45 17v15h215v-15q-32 -3 -40 -12q-8 -6 -8 -24l2 -19l7 -22l100 -274l98 221l-24 64q-13 29 -33 47.5t-46 18.5v15h221v-15h-11q-18 0 -30.5 -9.5t-12.5 -27.5l1 -14l7 -21l103 -279l100 280l7 23l2 20q0 11 -8.5 19.5
t-26.5 8.5h-12v15h150v-15q-21 -4 -34.5 -17.5t-29.5 -53.5l-166 -444h-12l-124 328l-136 -328h-12z" />
    <glyph glyph-name="x" unicode="x" 
d="M7 520h231v-14h-8q-20 0 -29 -8t-9 -22v-14l7 -13l80 -129l88 130l7 15q3 6 3 14q0 12 -10 19.5t-28 7.5h-12v14h167v-14q-11 0 -21.5 -3.5t-22.5 -11.5q-19 -13 -37 -40l-112 -167l124 -201q17 -27 40.5 -45t54.5 -24v-14h-231v14q25 0 39 9q8 5 11 21l-5 11l-7 16
l-93 150l-98 -143l-13 -22l-1 -12q0 -13 10 -23q11 -7 28 -7h12v-14h-172v14q28 3 51.5 20.5t45.5 50.5l116 171l-118 190q-19 29 -39.5 44.5t-38.5 15.5h-10v14z" />
    <glyph glyph-name="y" unicode="y" 
d="M-8 576h231v-14q-38 0 -53 -17q-6 -10 -6 -21q0 -10 5 -26l127 -315l102 282l6 27l4 29q0 16 -15.5 28.5t-32.5 12.5h-15v14h181v-14q-21 0 -42 -18q-18 -15 -35 -62l-170 -458q-31 -84 -73.5 -124t-98.5 -40q-32 0 -51.5 15.5t-19.5 40.5q0 21 16 38q18 14 43 14
q19 0 39 -9.5t37 -11.5q22 0 40 25q9 12 19 32t23 51l-186 443q-13 31 -33 47q-19 17 -42 17v14z" />
    <glyph glyph-name="z" unicode="z" horiz-adv-x="480" 
d="M58 378l6 142h402l-319 -481h186q59 0 85 26q26 27 26 93h14v-158h-444l318 481h-182q-40 0 -55.5 -23t-21.5 -80h-15z" />
    <glyph glyph-name="braceleft" unicode="{" horiz-adv-x="369" 
d="M99 374v-6q65 -11 99.5 -49.5t34.5 -110.5v-40v-24v-15v-97q0 -58 18 -84t58 -36v-29q-78 13 -116.5 57.5t-38.5 133.5v69l2 63q0 72 -24.5 106t-72.5 38v42q45 0 71 35t26 109l-2 61v72q0 88 38 131.5t117 58.5v-29q-38 -9 -58 -36q-18 -26 -18 -83v-99v-78
q0 -73 -33 -110.5t-101 -49.5z" />
    <glyph glyph-name="bar" unicode="|" horiz-adv-x="155" 
d="M49 -128v993h57v-993h-57z" />
    <glyph glyph-name="braceright" unicode="}" horiz-adv-x="372" 
d="M273 372v6q-66 9 -100 48t-34 112v78l1 99q0 57 -19 82.5t-58 36.5v29q76 -13 115 -57.5t39 -132.5v-33.5v-38.5v-61q0 -74 23 -108q23 -31 73 -36v-42q-46 0 -71 -35.5t-25 -108.5v-63v-69q0 -90 -38 -133t-116 -58v29q37 9 57 36.5t20 83.5v51v28q-1 14 -1 18v79
q0 71 33.5 109.5t100.5 50.5z" />
    <glyph glyph-name="asciitilde" unicode="~" horiz-adv-x="663" 
d="M88 330l-31 22q33 53 79.5 79.5t98.5 26.5h39l109 -48q14 -7 24.5 -11t31 -10.5t37.5 -6.5q27 0 51.5 18t49.5 58l30 -21q-33 -56 -70 -81.5t-80 -25.5q-21 0 -30.5 1t-34.5 7.5t-89 36.5q-47 20 -65 25l-33 6q-34 0 -62 -19t-55 -57z" />
    <glyph glyph-name="uni00A0" unicode="&#xa0;" 
 />
    <glyph glyph-name="exclamdown" unicode="&#xa1;" horiz-adv-x="654" 
d="M276 -34q-45 33 -60 114v456q9 33 -24 24q-81 -30 -126 -90q-45 -15 -66 18v22q21 53 72 120q63 68 120 96q21 14 48 24q48 14 94 0q20 -16 26 -46v-234q9 30 42 36h276v-282h-72v-162q-18 -72 -66 -96q-51 33 -60 102v156h-132v-150q-24 -81 -72 -108z" />
    <glyph glyph-name="cent" unicode="&#xa2;" horiz-adv-x="618" 
d="M288 -40q-57 39 -72 120v456q9 33 -24 24q-81 -30 -126 -90q-45 -15 -66 18v22q21 53 72 120q63 68 120 96q27 14 48 24q48 14 94 0q20 -16 26 -46v-228q15 27 42 30h240v-282h-288v-144q-12 -87 -66 -120z" />
    <glyph glyph-name="sterling" unicode="&#xa3;" horiz-adv-x="744" 
d="M288 -40q-57 39 -72 120v456q9 33 -24 24q-81 -30 -126 -90q-45 -15 -66 18v22q21 53 72 120q63 68 120 98q27 12 48 22q48 14 94 0q20 -16 26 -46v-222q9 27 42 24h366v-282h-228q84 -114 174 -204q-51 -72 -102 -150q-96 165 -180 354h-78v-144q-12 -87 -66 -120z" />
    <glyph glyph-name="currency" unicode="&#xa4;" horiz-adv-x="768" 
d="M288 -40q-57 39 -72 120v456q9 33 -24 24q-81 -30 -126 -90q-45 -15 -66 18v22q21 53 72 120q63 68 120 96q27 14 48 24q48 14 94 0q20 -16 26 -46v-228q15 27 42 30h390v-282h-78v-120q3 -93 -60 -144q-84 -21 -162 0q-69 54 -78 126v138h-60v-144q-12 -87 -66 -120z
M480 224v-114q27 -45 72 -48h42q36 9 60 48v114h-174z" />
    <glyph glyph-name="yen" unicode="&#xa5;" horiz-adv-x="1104" 
d="M288 -40q-57 39 -72 120v456q9 33 -24 24q-81 -30 -126 -90q-45 -15 -66 18v22q21 53 72 120q63 68 120 96q27 14 48 24q48 14 94 0q20 -16 26 -46v-228q15 27 42 30h726v-282h-210q60 -108 150 -198q-54 -72 -120 -138q-78 168 -138 336h-96v-120q3 -93 -60 -144
q-84 -21 -162 0q-69 54 -78 126v138h-60v-144q-12 -87 -66 -120zM480 224v-114q27 -45 72 -48h42q36 9 60 48v114h-174z" />
    <glyph glyph-name="brokenbar" unicode="&#xa6;" horiz-adv-x="468" 
d="M288 -40q-57 39 -72 120v456q9 33 -24 24q-81 -30 -126 -90q-45 -15 -66 18v22q21 53 72 120q63 68 120 96q27 14 48 24q48 14 94 0q20 -16 26 -46v-228q15 27 42 30h90v-282h-138v-144q-12 -87 -66 -120zM207 -186q21 44 63 56q36 18 75 -3q18 -12 30 -42q12 -24 0 -42
q-18 -42 -51 -63q-33 -14 -66 -3q-36 12 -51 39q-11 27 0 58z" />
    <glyph glyph-name="section" unicode="&#xa7;" horiz-adv-x="552" 
d="M120 -40q-54 15 -84 66q-24 30 -36 126v382q6 98 48 170q36 45 96 70q45 8 96 8q54 -9 94 -32q65 -52 86 -118q6 -27 10 -50v-120q8 47 32 44h114v-282h-90v-72q0 -105 -42 -150h-24q-54 54 -60 150v384q-6 30 -12 54q-30 54 -72 72q-66 24 -126 6q-45 -24 -56 -60
l-4 -102h198v-450q-12 -63 -74 -96q-52 -6 -94 0zM168 54q36 17 48 72v98h-138v-96q0 -33 30 -60l34 -14h26z" />
    <glyph glyph-name="dieresis" unicode="&#xa8;" horiz-adv-x="648" 
d="M504 -64q-57 87 -96 192q-36 114 -48 264v168q-15 69 -72 96q-72 15 -120 6q-54 -6 -72 -72l-12 -84h204v-402q-15 -57 -42 -102q-33 -30 -56 -42h-70q-48 24 -78 66q-27 27 -42 126v358q6 143 54 200q42 54 90 64q60 11 118 0q86 -25 120 -96q38 -40 48 -120v-96
q11 41 32 44h210v-282h-194q65 -108 120 -146q-46 -73 -94 -142zM168 102q30 8 48 62v60h-146l2 -66q6 -39 46 -56h50z" />
    <glyph glyph-name="copyright" unicode="&#xa9;" horiz-adv-x="882" 
d="M720 -112q-84 138 -168 336h-74v-168q-10 -33 -34 -60q-27 -27 -62 -36q-34 -6 -70 0q-30 15 -48 48l-12 30l-14 -30q-25 -33 -48 -48q-46 -12 -94 0q-33 24 -60 60q-27 39 -36 132v358q12 134 36 170q36 46 60 70q48 38 96 48q54 2 118 0q50 -16 92 -40l49.5 -49.5
t26.5 -54.5v-168q5 23 32 20h396v-282h-236q59 -105 144 -170q-55 -85 -94 -166zM168 102q39 11 48 62v60h-156v-60q12 -48 58 -62h50zM384 104q36 12 48 54v66h-146l2 -60q-3 -45 42 -60h54zM252 446q15 48 36 60h126l-6 78q-12 33 -27 54t-69 30q-93 15 -150 0
q-45 -27 -78 -90l-6 -72h138q15 -15 36 -60z" />
    <glyph glyph-name="ordfeminine" unicode="&#xaa;" horiz-adv-x="550" 
d="M24 -40v46q12 56 22.5 78.5t49.5 41.5h96q21 -1 24 24v74h-216v358q9 104 42 140q30 45 102 52h94q92 -16 120 -48q35 -46 45.5 -67t26.5 -77v-120q5 44 26 48h118v-286h-72v-72q-10 -108 -64 -168h-12q-51 78 -66 168v384l-18 54q-24 57 -78 72q-69 6 -120 0
q-54 -15 -74 -78v-74h216v-406q-7 -66 -48 -96h-24q-55 -3 -48 -48h-142z" />
    <glyph glyph-name="guillemotleft" unicode="&#xab;" horiz-adv-x="886" 
d="M744 -88q-84 162 -144 312h-74v-48q-10 -72 -34 -114q-24 -69 -86 -78h-70v24q-105 18 -216 -18l-2 -30h-46v70q9 71 48 96h96q51 14 48 72v26h-264v286h24v24q3 71 30 134q30 45 66 82q24 24 96 48h118q62 -13 96 -48q29 -31 56 -70q21 -48 40 -122v-72q5 26 26 24h358
v-286h-192q62 -96 120 -146q-46 -100 -94 -166zM432 122l24 28q3 29 0 74h-122q-4 -48 2 -66q0 -33 30 -42q33 -9 66 6zM276 386q9 84 36 124h144q-3 65 -42 116q-27 39 -78 54h-98q-55 0 -94 -30q-36 -42 -50 -90v-50h144q29 -43 38 -124z" />
    <glyph glyph-name="logicalnot" unicode="&#xac;" horiz-adv-x="622" 
d="M168 8q-9 36 0 70q36 -19 48 48q-27 41 -48 74q-18 24 -24 48h-26q-58 3 -48 -48q-46 0 -70 72v118q15 59 48 96l48 48h72v72q27 113 132 140q57 6 102 0q75 -48 78 -96q18 -45 22 -92v-72q8 23 26 24h118v-286h-94v-72q3 -81 -36 -144h-12q-39 45 -48 144v190v170
q-15 54 -22.5 79.5t-49.5 40.5h-50q-76 -9 -120 -96l-24 -72v-146q14 -58 27.5 -83.5t44.5 -60.5q20 -37 48 -24v-70q-24 -48 -48 -72q-49 -18 -94 0z" />
    <glyph glyph-name="uni00AD" unicode="&#xad;" horiz-adv-x="622" 
d="M168 8q-9 36 0 70q36 -19 48 48q-27 41 -48 74q-18 24 -24 48h-26q-58 3 -48 -48q-46 0 -70 72v118q15 59 48 96l48 48h72v72q27 113 132 140q57 6 102 0q75 -48 78 -96q18 -45 22 -92v-72q8 23 26 24h118v-286h-94v-72q3 -81 -36 -144h-12q-39 45 -48 144v190v170
q-15 54 -22.5 79.5t-49.5 40.5h-50q-76 -9 -120 -96l-24 -72v-146q14 -58 27.5 -83.5t44.5 -60.5q20 -37 48 -24v-70q-24 -48 -48 -72q-49 -18 -94 0zM162 -178q12 69 60 102q36 6 72 -12q18 -24 30 -60q-18 -63 -54 -102q-48 -21 -96 0q-15 39 -12 72zM372 -232
q27 84 78 120q36 3 66 -6q24 -21 42 -54q-15 -72 -60 -114q-51 -24 -102 0q-24 27 -24 54z" />
    <glyph glyph-name="registered" unicode="&#xae;" horiz-adv-x="504" 
d="M120 -16q-51 54 -72 96q-33 42 -48 192v214q18 119 66 188q39 72 126 100h70q92 -34 122 -112q18 -24 18 -66v-114q9 27 36 24h90v-282h-50v-72q-4 -105 -70 -168h12h-18q-57 69 -66 168v384q3 57 -48 96q-72 36 -126 12q-51 -21 -72 -78l-20 -78v-170l24 -120
q38 -76 92 -100l-30 -126z" />
    <glyph glyph-name="macron" unicode="&#xaf;" horiz-adv-x="600" 
d="M456 -88q-57 72 -96 216v312q0 57 -18 102q-15 78 -54 90q-66 30 -120 12q-30 -15 -50 -36q-40 -30 -48 -120v-170q5 -67 24 -120q24 -24 44 -52l36 -30l-24 -72l-30 -84q-24 24 -54 84q-30 42 -48 102q-15 57 -18 126v214q9 131 42 170q30 46 54 70q45 35 96 48h46
q56 -1 96 -48q35 -34 48 -72q17 -34 26 -70v-144q3 60 36 66h180v-282h-194v-26q53 -82 120 -120q-48 -94 -94 -166z" />
    <glyph glyph-name="degree" unicode="&#xb0;" horiz-adv-x="862" 
d="M696 -88q-81 150 -120 312h-98v-144q-16 -66 -40 -96l-32 -24q-52 -9 -94 0q-24 21 -54 48q-30 39 -42 120v382h192v98q-27 36 -72 48h-98q-76 -6 -94 -36q-33 -24 -50 -60q-28 -39 -48 -120v-146q11 -91 48 -144q44 -61 96 -72v-142l-94 54q-42 51 -60 108
q-27 51 -36 174v166q15 125 48 170q12 39 48 84q27 57 120 82h94q74 -19 122 -58q33 -39 46 -86v-144q5 17 26 24h382v-286h-192q29 -69 96 -122l24 -24q-58 -82 -118 -166zM384 78q48 17 48 62v84h-144v-84q6 -48 46 -62h50z" />
    <glyph glyph-name="plusminus" unicode="&#xb1;" horiz-adv-x="444" 
d="M264 -16q-30 30 -48 96v408q-24 48 -72 12q-51 -30 -74 -60q-24 -24 -46 -24q-24 24 -24 70q42 74 96 120l96 96l48 24h24v50h-120q-30 27 -24 64q9 51 -24 72h-24v70q18 38 70 24v-72h192q35 -28 24 -70q5 -43 -10 -88h-38v-74h24v-216q5 23 32 20h102v-282h-134v-144
q-13 -54 -48 -96h-22z" />
    <glyph glyph-name="uni00B2" unicode="&#xb2;" horiz-adv-x="444" 
d="M276 -16q-42 30 -60 96v384q-3 60 -50 48q-49 -18 -96 -48l-70 -36q0 54 18 90q48 66 70.5 93t79.5 67l24 24l48 14v108h-24v90q6 17 24 24h120v72h70v-118q2 -39 -24 -48h-24v-44h-72q-25 -18 -24 -74h24q44 -25 48 -96l2 -124h108v-282h-134v-144q-16 -63 -64 -96h6z
" />
    <glyph glyph-name="uni00B3" unicode="&#xb3;" horiz-adv-x="540" 
d="M396 8q-48 48 -60 144v286q0 68 6 152l-12 -6q-21 -78 -44 -192q-31 -63 -72 -96l-96 -72q-73 -27 -118 -24v94l24 168l24 96h46q41 -16 98 0q54 2 72 96q9 65 48 96h118q-22 -58 -24 -118v-146q11 17 32 20h126v-282h-110v-72q2 -90 -46 -144h-12z" />
    <glyph glyph-name="acute" unicode="&#xb4;" horiz-adv-x="540" 
d="M396 8q-48 48 -60 144v286q0 68 6 152l-12 -6q-21 -78 -44 -192q-31 -63 -72 -96l-96 -72q-73 -27 -118 -24v94l24 168l24 96h46q41 -16 98 0q54 2 72 96q9 65 48 96h118q-22 -58 -24 -118v-146q11 17 32 20h126v-282h-110v-72q2 -90 -46 -144h-12zM132 896q21 96 84 126
q36 15 60 0q45 -42 36 -96q-6 -54 -42 -90t-84 -18l-30 18q-18 24 -24 60zM348 896q21 72 54 108q39 24 72 12q45 -30 42 -84q-3 -57 -42 -108q-54 -24 -102 0q-30 30 -24 72z" />
    <glyph glyph-name="mu" unicode="&#xb5;" horiz-adv-x="606" 
d="M474 -16q-54 63 -66 168v144h-26v-48q-22 -66 -82 -96q-60 -6 -108 0q-36 12 -72 48q-30 63 -24 120q-26 0 -26 -24q-46 0 -70 48v70l24 72q24 35 72 48q27 -7 42 74q9 30 72 48q45 6 96 -12q42 -12 52 -62q24 -24 24 -96q8 20 50 20h198v-282h-80v-72q-4 -111 -58 -168
h-18zM282 272q42 24 54 94q15 80 -24 146q-48 36 -98 24q-46 -9 -76 -72q-9 -57 0 -108q12 -69 52 -86q38 -16 92 2z" />
    <glyph glyph-name="paragraph" unicode="&#xb6;" horiz-adv-x="384" 
d="M168 -160q-54 36 -96 90q-30 45 -48 102l-24 120v354h408v-282h-314v-122q11 14 50 26q39 6 118 -2q53 -31 72 -96q11 -64 0 -118q-34 -60 -72 -72q-49 -18 -94 0zM228 -52q51 36 24 96q-30 18 -62 12q-40 -21 -34 -72q24 -45 72 -36z" />
    <glyph glyph-name="periodcentered" unicode="&#xb7;" horiz-adv-x="438" 
d="M120 -112q-33 21 -24 118q6 68 24 120h144v98h-264v282h462v-282h-104v-264h-168q-34 -9 -48 -48v-24h-22z" />
    <glyph glyph-name="cedilla" unicode="&#xb8;" horiz-adv-x="426" 
d="M192 -136l-24 24q-57 51 -96 120l-24 48q-30 45 -48 144v306h72v-240v-30q15 -96 46 -134q17 -58 56 -94q39 78 84 138q-24 27 -42 78v238q-3 32 24 44h210v-282h-140q0 -26 26 -48l22 -26q-28 -43 -70 -100q-54 -84 -96 -186z" />
    <glyph glyph-name="uni00B9" unicode="&#xb9;" horiz-adv-x="336" 
d="M72 -136l-24 24q-12 51 24 70h48q30 26 0 50q-24 0 -48 24t-48 72l-24 72v324h360v-276h-266l2 -48q18 -54 72 -84q39 -24 70 -38q53 -37 53 -68.5t-29 -49.5l-96 -48q-49 -33 -94 -24z" />
    <glyph glyph-name="ordmasculine" unicode="&#xba;" horiz-adv-x="714" 
d="M408 -232q-105 21 -174 84q-69 57 -114 108l-48 72q-24 42 -48 96l-24 120v238q15 179 48 240q15 59 48 96q42 74 96 116q72 60 168 76q54 2 118 0q89 -19 144 -72q23 -43 24 -96v-142h-24v-218q5 14 32 20h84v-282h-116v-72q8 -111 -52 -168h-18q-48 24 -72 168v238h24
v170q-3 18 -24 24h-26q-55 -24 -96 -72q-31 -33 -70 -24v46q18 35 48 72q48 50 114 104q30 27 54 40h96v74q9 45 -18 84q-39 39 -102 60q-63 6 -122 0q-61 -6 -144 -72q-24 -24 -72 -96q-28 -45 -48 -96q-34 -84 -48 -192v-242q11 -88 48 -168q24 -48 72 -120q44 -49 96 -96
q32 -28 72 -48q98 -37 170 0v26h-48v70h70q50 -13 72 -48q11 -34 0 -70q-34 -39 -72 -48q-70 -6 -118 0z" />
    <glyph glyph-name="guillemotright" unicode="&#xbb;" horiz-adv-x="552" 
d="M72 -160q-12 18 -48 24q-12 150 24 142q-12 23 -30 56l-18 90v430l12 98q21 54 60 70q33 17 72 24h94q53 -7 92 -34q39 -21 60 -60q27 -36 40 -98v-120q20 41 26 44h120v-282h-74v-72q-10 -138 -64 -168h-12q-57 60 -66 168v384l-12 54q-30 57 -84 66h-122
q-58 -6 -72 -72v-74h216v-454q-16 -57 -28 -70.5t-44 -25.5h-96v-120q-28 -9 -46 0zM186 98q33 15 30 72v54h-146v-50q5 -49 24 -72q65 -28 92 -4z" />
    <glyph glyph-name="onequarter" unicode="&#xbc;" horiz-adv-x="882" 
d="M720 -112q-84 138 -168 336h-74v-168q-10 -33 -34 -60q-27 -27 -62 -36q-34 -6 -70 0q-30 15 -48 48l-12 30l-14 -30q-25 -33 -48 -48q-46 -18 -70 -6q6 -45 -30 -60q-9 -27 -6 -66l-60 6q-15 33 -6 72q3 36 66 60q-33 24 -48 54q-27 39 -36 132v358q12 134 36 170
q36 46 60 70q48 38 96 48q54 2 118 0q50 -16 92 -40l49.5 -49.5t26.5 -54.5v-168q5 23 32 20h396v-282h-236q59 -105 144 -170q-55 -85 -94 -166zM168 102q39 11 48 62v60h-156v-60q12 -48 58 -62h50zM384 104q36 12 48 54v66h-146l2 -60q-3 -45 42 -60h54zM252 446
q15 48 36 60h126l-6 78q-12 33 -27 54t-69 30q-93 15 -150 0q-45 -27 -78 -90l-6 -72h138q15 -15 36 -60z" />
    <glyph glyph-name="onehalf" unicode="&#xbd;" horiz-adv-x="696" 
d="M312 -40v96q-6 60 -48 96l-24 18l-2 -114q-19 -48 -48 -72q-22 0 -46 24v46h24l6 134q-18 27 -54 36h-120v282h162q15 108 54 148q33 65 78 92l42 28h94q48 -24 72 -48t48 -72q26 -49 24 -96v-72q2 17 32 20h114v-282h-98v-144q-1 -69 -40 -102h-18q-42 21 -60 102v480
q-9 36 -42 78q-81 39 -150 6q-63 -21 -98 -132v-26h24q44 -19 96 -48q53 -40 96 -120q14 -106 -24 -238q-24 -96 -48 -120h-46z" />
    <glyph glyph-name="threequarters" unicode="&#xbe;" horiz-adv-x="978" 
d="M840 -64q-111 168 -144 288h-74v-144q-4 -51 -17.5 -75t-54.5 -45h-118l-43.5 43.5t-28.5 76.5v426h192v54q-15 27 -36 54q-27 33 -78 66q-60 18 -126 12q-48 -18 -96 -48q-42 -33 -54 -78l-20 -54l-4 -12q51 -21 90 -60t51 -75t7 -189q-10 -186 -48 -216l-22 48
q-15 54 -48 96h-26v-96q-10 -18 -24 -24h-46v216q-9 12 -24 24h-48v282h96q-9 66 24 148q42 65 90 104q45 36 102 40q57 2 118 0q68 -19 104 -70q39 -45 64 -98q20 -46 20 -94l4 -74q8 41 26 44h354v-282h-210q66 -93 142 -146q-52 -67 -94 -142zM504 78q30 -4 48 48v98
h-122l2 -72q-3 -51 42 -78z" />
    <glyph glyph-name="questiondown" unicode="&#xbf;" horiz-adv-x="622" 
d="M168 -40q-51 27 -72 66q-18 24 -24 54v144h-72v286h72v120q12 59 48 96q24 24 72 48q63 8 118 0q53 -7 98 -40v98h-120q-24 -3 -24 24v64h-24v70q12 26 46 24q23 -7 23.5 -27.5t24.5 -44.5h168v-70h-24v-168h-24q23 -51 24 -74v-144q17 20 26 24h142v-286h-72v-72
q-10 -114 -64 -168h-6q-54 57 -72 168v336q-6 57 -24 96q-27 51 -72 72q-63 15 -120 6q-48 -9 -74 -54v-98h216v-406q-7 -60 -24 -96q-25 -33 -72 -48q-43 -6 -94 0zM258 74q21 9 30 52v98h-146v-98q2 -31 38 -58q42 -15 78 6z" />
    <glyph glyph-name="Agrave" unicode="&#xc0;" horiz-adv-x="504" 
d="M240 80l-144 264v22l144 288h22l146 -286v-18l-146 -270h-22z" />
    <glyph glyph-name="Aacute" unicode="&#xc1;" horiz-adv-x="264" 
d="M126 -34q-42 45 -54 114v144h-72v282h288v-282h-98v-144q-13 -63 -52 -114h-12z" />
    <glyph glyph-name="Acircumflex" unicode="&#xc2;" horiz-adv-x="382" 
d="M132 -136l-42 36q-27 39 -48 78q-21 27 -42 126v402h406v-282h-312v-98q8 -67 44 -112q42 -51 108 -24q24 27 18 88h46q35 -22 24 -142q-16 -66 -48 -72q-37 -36 -154 0z" />
    <glyph glyph-name="Atilde" unicode="&#xc3;" horiz-adv-x="310" 
d="M168 -88q-48 48 -96 144q-39 57 -72 168v282h334v-282h-192q35 -93 96 -146l24 -24q-49 -67 -94 -142z" />
    <glyph glyph-name="Adieresis" unicode="&#xc4;" horiz-adv-x="336" 
d="M360 224h-98v-192q-13 -57 -82 -72h-90q-78 15 -90 72v192v282h360v-282zM192 110v114h-126v-108q6 -42 48 -48h24q39 6 54 42z" />
    <glyph glyph-name="Aring" unicode="&#xc5;" horiz-adv-x="718" 
d="M552 -88q-57 138 -120 312h-98v-192q-13 -57 -82 -72h-90q-78 15 -90 72v192h-72v282h742v-282h-216q65 -111 144 -194q-58 -43 -118 -118zM264 110v114h-126v-108q6 -42 48 -48h24q39 6 54 42z" />
    <glyph glyph-name="AE" unicode="&#xc6;" horiz-adv-x="264" 
d="M126 -34q-42 45 -54 114v144h-72v282h288v-282h-98v-144q-13 -63 -52 -114h-12zM36 -190q39 78 90 96q36 3 66 -12q18 -30 24 -66q-15 -69 -54 -114q-72 -24 -120 12q-12 45 -6 84z" />
    <glyph glyph-name="Ccedilla" unicode="&#xc7;" horiz-adv-x="528" 
d="M192 -40q-42 15 -72 48q-27 18 -48 72v144h-72v282h72v100q3 68 48 96q27 32 72 48q84 8 190 0q68 -31 96 -96q35 -64 50 -148h24v-282h-26q-52 -9 -70 48v192q-12 93 -42 132q-30 33 -78 36q-63 9 -122 0l-46 -12q-39 -24 -50 -84v-30h240v-402q-4 -51 -24 -96
q-24 -24 -72 -48h-70zM264 98q33 21 24 76v50h-146v-74q11 -43 44 -52h78z" />
    <glyph glyph-name="Egrave" unicode="&#xc8;" horiz-adv-x="646" 
d="M504 -64l-24 24q-30 60 -48 120q-24 48 -48 168v144q-15 174 -48 216q-18 33 -48 48q-69 15 -122 0q-46 -3 -70 -72l-2 -78h192v-450q-19 -39 -35.5 -51t-36.5 -21h-144v-24h-22v70q18 53 30 66.5t66 29.5h72q30 11 24 98h-240v286q3 107 48 164q36 69 96 100
q57 11 118 0q77 -34 120 -96q32 -46 48 -120v-96q5 47 26 44h214v-282h-192q23 -48 72 -98l48 -48q-52 -61 -94 -142z" />
    <glyph glyph-name="Eacute" unicode="&#xc9;" horiz-adv-x="552" 
d="M576 224h-98v-168q-10 -33 -34 -60q-27 -27 -62 -36q-34 -6 -70 0q-30 15 -48 48l-12 30l-14 -30q-25 -33 -48 -48q-46 -12 -94 0q-33 24 -60 60q-27 39 -36 132v358q12 134 36 170q36 46 60 70q48 38 96 48q54 2 118 0q50 -16 92 -40l49.5 -49.5t26.5 -54.5v-168
q5 23 32 20h66v-282zM168 102q39 11 48 62v60h-156v-60q12 -48 58 -62h50zM384 104q36 12 48 54v66h-146l2 -60q-3 -45 42 -60h54zM252 446q15 48 36 60h126l-6 78q-12 33 -27 54t-69 30q-93 15 -150 0q-45 -27 -78 -90l-6 -72h138q15 -15 36 -60z" />
    <glyph glyph-name="Ecircumflex" unicode="&#xca;" horiz-adv-x="528" 
d="M72 -40v70q12 44 48 72l48 24h72q36 23 24 98h-264v286h72v96q12 62 48 96q30 32 72 48h190q71 -34 96 -96q35 -61 50 -148h24v-282h-26q-49 0 -70 48v192q-15 75 -48 120q-15 45 -72 48h-122q-52 -12 -72 -48q-22 -33 -24 -74h240v-286h-24v-48q-13 -81 -34 -132
q-27 -48 -86 -84h-142z" />
    <glyph glyph-name="Edieresis" unicode="&#xcb;" horiz-adv-x="594" 
d="M618 224h-92v-48q-10 -72 -34 -114q-24 -69 -86 -78h-70v24q-105 18 -216 -18l-2 -30h-46v70q9 71 48 96h96q51 14 48 72v26h-264v286h24v24q3 71 30 134q30 45 66 82q24 24 96 48h118q62 -13 96 -48q29 -31 56 -70q21 -48 40 -122v-72q5 26 32 20h60v-282zM432 122
l24 28q3 29 0 74h-122q-4 -48 2 -66q0 -33 30 -42q33 -9 66 6zM276 386q9 84 36 124h144q-3 65 -42 116q-27 39 -78 54h-98q-55 0 -94 -30q-36 -42 -50 -90v-50h144q29 -43 38 -124z" />
    <glyph glyph-name="Igrave" unicode="&#xcc;" horiz-adv-x="502" 
d="M120 -16q-39 30 -48 96v144h-72v282h526v-282h-76v-138q-18 -75 -54 -102h-18q-42 27 -66 96v144h-122v-144q-16 -66 -48 -96h-22z" />
    <glyph glyph-name="Iacute" unicode="&#xcd;" horiz-adv-x="502" 
d="M120 -16q-39 30 -48 96v144h-72v282h526v-282h-76v-138q-18 -75 -54 -102h-18q-42 27 -66 96v144h-122v-144q-16 -66 -48 -96h-22zM60 -190q12 69 60 102q36 6 72 -12q18 -24 30 -60q-18 -63 -54 -102q-48 -21 -96 0q-15 39 -12 72zM270 -244q27 84 78 120q36 3 66 -6
q24 -21 42 -54q-15 -72 -60 -114q-51 -24 -102 0q-24 27 -24 54z" />
    <glyph glyph-name="Icircumflex" unicode="&#xce;" horiz-adv-x="432" 
d="M192 32l-48 48q-42 39 -48 96v48h-96v282h96v28q9 71 48 116q39 36 78 48q42 12 88 4q68 -25 86 -76q12 -63 30 -120h30v-282h-26q-46 0 -58 36l-12 84q-3 126 -16.5 174t-43.5 78q-45 15 -84 6q-51 -21 -74 -90v-266q11 -64 50 -94l48 -12v-114z" />
    <glyph glyph-name="Idieresis" unicode="&#xcf;" horiz-adv-x="790" 
d="M600 -16q-24 48 -48 144v120q-15 219 -48 336q-24 60 -60 78q-42 12 -84 6q-57 -15 -98 -60l-16 -54v-72l60 -30q33 -27 76 -62q32 -19 48 -72v-70q-16 -120 -48 -216l-24 -72h-22v24l-24 72q-21 60 -48 96h-26v-144q-25 -30 -70 -24v216q-21 15 -48 24h-120v286h192v48
q6 80 36 128q39 72 132 108l70 4q98 -22 144 -120l14 -232q9 45 36 64h190v-286h-192q38 -108 116 -174l-44 -66l-34 -60z" />
    <glyph glyph-name="Eth" unicode="&#xd0;" horiz-adv-x="552" 
d="M576 224h-98v-144q-16 -66 -40 -96l-32 -24q-52 -9 -94 0q-24 21 -54 48q-30 39 -42 120v378h192v102q-27 36 -72 48h-98q-76 -6 -94 -36q-33 -24 -50 -60q-28 -39 -48 -120v-146q11 -91 48 -144q44 -61 96 -72v-142l-94 54q-42 51 -66 108q-24 48 -30 126v282
q15 57 42 108q18 33 54 78q27 57 120 82h94q74 -19 122 -58q33 -39 46 -86v-144q5 17 26 20h72v-282zM384 78q48 17 48 62v84h-144v-84q6 -48 46 -62h50z" />
    <glyph glyph-name="Ntilde" unicode="&#xd1;" horiz-adv-x="262" 
d="M132 -22q-51 75 -60 174v72h-72v282h168v102h-96q0 48 -24 72h-24v166h46q-4 -31 24 -48h192v-70q-4 -72 -48 -72v-150h48v-282h-72l-4 -78q-12 -123 -66 -162z" />
    <glyph glyph-name="Ograve" unicode="&#xd2;" horiz-adv-x="262" 
d="M120 -16q-30 27 -48 96v144h-72v282h24v292h120q27 26 24 96q46 0 70 -24q11 -88 -28 -130l-12 -108h-104v-126h192v-282h-96v-144q-13 -63 -48 -96h-22z" />
    <glyph glyph-name="Oacute" unicode="&#xd3;" horiz-adv-x="502" 
d="M120 -16q-24 24 -48 96v144h-72v282h156l12 52q18 59 42 104q30 40 54 64t72 56l24 16h22l24 -24v-70h-24v-194h144v-286h-96v-144q-13 -63 -48 -96h-22q-36 21 -48 96v552h-26q-31 -36 -48 -72q-24 -48 -48 -144q-16 -84 -24 -168v-240l-24 -24h-22z" />
    <glyph glyph-name="Ocircumflex" unicode="&#xd4;" horiz-adv-x="502" 
d="M120 -16q-24 24 -48 96v144h-72v282h156l12 52q18 59 42 104q30 40 54 64t72 56l24 16h22l24 -24v-70h-24v-194h144v-286h-96v-144q-13 -63 -48 -96h-22q-36 21 -48 96v552h-26q-31 -36 -48 -72q-24 -48 -48 -144q-16 -84 -24 -168v-240l-24 -24h-22zM78 896
q21 96 84 126q36 15 60 0q45 -42 36 -96q-6 -54 -42 -90t-84 -18l-30 18q-18 24 -24 60zM294 896q21 72 54 108q39 24 72 12q45 -30 42 -84q-3 -57 -42 -108q-54 -24 -102 0q-30 30 -24 72z" />
    <glyph glyph-name="Otilde" unicode="&#xd5;" horiz-adv-x="552" 
d="M96 368q0 70 52.5 122t127.5 52q73 0 126.5 -52t53.5 -122q0 -72 -53.5 -123t-126.5 -51q-75 0 -127.5 51t-52.5 123z" />
    <glyph glyph-name="Odieresis" unicode="&#xd6;" horiz-adv-x="648" 
d="M516 -16q-54 57 -60 168v72h-122v-192q-13 -57 -82 -72h-90q-78 15 -90 72v192h-72v282h672v-282h-78v-78q-6 -123 -60 -162h-18zM264 110v114h-126v-108q6 -42 48 -48h24q39 6 54 42z" />
    <glyph glyph-name="multiply" unicode="&#xd7;" horiz-adv-x="598" 
d="M360 -184q-30 18 -48 48q-21 42 -24 96h-122q-25 -21 -24 -48h-46v70h24v144h144v98h-264v282h622v-282h-288v-74q2 -97 14 -148q9 -57 34 -92h50q15 44 0 96h46q29 -13 48 -24v-142l-24 -24h-142z" />
    <glyph glyph-name="Oslash" unicode="&#xd8;" horiz-adv-x="406" 
d="M96 -88l18 162q54 0 90 7.5t60 44.5v98h-264v282h430v-282h-72v-144q-16 -72 -48 -96q-40 -39 -94 -54q-50 -18 -120 -18z" />
    <glyph glyph-name="Ugrave" unicode="&#xd9;" horiz-adv-x="366" 
d="M0 224v282h390v-282h-390z" />
    <glyph glyph-name="Uacute" unicode="&#xda;" horiz-adv-x="406" 
d="M240 -136l-24 24l6 162q-18 27 -42 -30q-14 -36 -38 -60t-46 -24q-24 24 -24 46q24 24 48 72q42 59 48 122l-24 48h-144v282h430v-282h-216q48 -50 96 -122q24 -48 24 -94q-24 -72 -48 -120q-24 -24 -46 -24z" />
    <glyph glyph-name="Ucircumflex" unicode="&#xdb;" horiz-adv-x="522" 
d="M144 -160l-48 24l-24 24v94h24l24 24v8l-24 18q-24 18 -24 48v144h-72v286h72v96q12 62 48 96q21 29 72 48h190q65 -34 96 -96q29 -67 50 -148h18v-282h-20q-46 0 -70 48v192q-15 78 -48 120q-18 33 -72 48h-122l-48 -24q-34 -21 -48 -72v-26h240v-406q-1 -51 -7 -64.5
t-17 -31.5q-22 -36 -72 -48h-72v-120h-46zM264 126q18 20 24 48v50h-146v-74q8 -22 24 -24h98z" />
    <glyph glyph-name="Udieresis" unicode="&#xdc;" horiz-adv-x="564" 
d="M588 224h-110v-168q-10 -33 -34 -60q-27 -27 -62 -36q-34 -6 -70 0q-30 15 -48 48l-12 30l-14 -30q-25 -33 -48 -48q-46 -18 -70 -6q6 -45 -30 -60q-9 -27 -6 -66l-60 6q-15 33 -6 72q3 36 66 60q-33 24 -48 54q-27 39 -36 132v358q12 134 36 170q36 46 60 70
q48 38 96 48q54 2 118 0q50 -16 92 -40l49.5 -49.5t26.5 -54.5v-168q5 23 32 20h78v-282zM168 102q39 11 48 62v60h-156v-60q12 -48 58 -62h50zM384 104q36 12 48 54v66h-146l2 -60q-3 -45 42 -60h54zM252 446q15 48 36 60h126l-6 78q-12 33 -27 54t-69 30q-93 15 -150 0
q-45 -27 -78 -90l-6 -72h138q15 -15 36 -60z" />
    <glyph glyph-name="Yacute" unicode="&#xdd;" horiz-adv-x="550" 
d="M264 -40q12 72 -1.5 103.5t-46.5 64.5h-26v-72q-13 -54 -48 -72h-22q-18 3 -24 24v94h24v98q0 21 -24 24h-96v286h120v48q12 71 48 120q30 59 96 96q60 14 88.5 8t77.5 -32q29 -31 48 -72q20 -43 24 -96v-72h72v-286h-46q-39 57 -48 120q-15 78 -24 168q-3 45 -18 73.5
t-48 52.5q-60 6 -96 6q-69 -12 -104 -84l-4 -66q36 -21 76 -56q50 -37 92 -100q12 -93 -20 -354q-25 -36 -70 -24z" />
    <glyph glyph-name="Thorn" unicode="&#xde;" horiz-adv-x="690" 
d="M714 224h-92v-144q-4 -51 -17.5 -75t-54.5 -45h-118l-43.5 43.5t-28.5 76.5v426h192v54q-15 27 -36 54q-27 33 -78 66q-60 18 -126 12q-48 -18 -96 -48q-42 -33 -54 -78l-20 -54l-4 -12q51 -21 90 -60t51 -75t7 -189q-10 -186 -48 -216l-22 48q-15 54 -48 96h-26v-96
q-10 -18 -24 -24h-46v216q-9 12 -24 24h-48v282h96q-9 66 24 148q42 65 90 104q45 36 102 40q57 2 118 0q68 -19 104 -70q39 -45 64 -98q20 -46 20 -94l4 -74q8 41 26 44h66v-282zM504 78q30 -4 48 48v98h-122l2 -72q-3 -51 42 -78z" />
    <glyph glyph-name="germandbls" unicode="&#xdf;" horiz-adv-x="696" 
d="M120 -16q-36 6 -48 96v144h-72v282h330q15 42 30 76q33 89 120 120h94q29 -13 48 -48q32 -61 36.5 -106t43.5 -42h18v-282h-26q-52 12 -70 48q-18 81 -24 168q-3 105 -48 150q-36 9 -72 0q-39 -3 -74 -54q-19 -27 -24 -72v-170q8 -58 48 -96q26 -37 74 -40l6 -126
q-78 24 -102 48q-33 27 -48 72l-24 72h-146v-144q-10 -66 -48 -96h-22z" />
    <glyph glyph-name="agrave" unicode="&#xe0;" horiz-adv-x="954" 
d="M240 80l-144 264v22l144 288h22l146 -286v-18l-146 -270h-22zM690 86l-144 264v22l144 288h22l146 -286v-18l-146 -270h-22z" />
    <glyph glyph-name="aacute" unicode="&#xe1;" horiz-adv-x="814" 
d="M360 -64l-48 24q-51 39 -96 96q-30 39 -48 96l-12 72h-156v282h238v-284q11 -52 48 -72h26v68q12 65 24 120l48 144q32 82 80 152l48 96l24 278q96 -153 166 -254q-31 -49 -72 -94q-37 -36 -76 -108q-26 -32 -52 -92q-46 -56 -72 -168q-25 -84 -34 -192l-14 -164h-22z
" />
    <glyph glyph-name="acircumflex" unicode="&#xe2;" horiz-adv-x="456" 
d="M144 -320v118v86q78 -3 120 34q33 11 48 96v138q-18 54 -48 72h-264v282h286q50 -3 68 -42v-186v-286q6 -93 -20 -168q-22 -39 -47.5 -58.5t-57 -24t-49.5 -61.5h-36z" />
    <glyph glyph-name="atilde" unicode="&#xe3;" horiz-adv-x="438" 
d="M210 -28q-30 12 -60 30q-39 33 -84 90t-66 132v282q0 99 30 168q45 96 138 124h70q53 -31 72 -72q32 -73 24 -190q-10 -63 -70 -66v138q0 24 -30 48q-33 18 -72 12q-39 -21 -72 -78q-12 -57 -20 -102v-98q-1 -94 32 -142q27 -60 60 -96q30 -36 60 -60l36 -12l6 -120z" />
    <glyph glyph-name="adieresis" unicode="&#xe4;" horiz-adv-x="550" 
d="M120 -40q-51 15 -72 48q-36 30 -48 216v282q15 132 42 180q15 30 54 64l48 24h94q65 -4 104 -40q42 -27 64 -56q35 -43 48 -168v-190q-7 -42 -22 -60t-48 -24v82v146q3 66 -24 102q-21 66 -96 90h-98q-46 -3 -72 -48q-22 -42 -28 -102h240v-330q-3 -135 -36 -174
q-30 -21 -56 -42h-94zM192 102q36 8 48 48v74h-170v-50q8 -55 48 -72h74z" />
    <glyph glyph-name="aring" unicode="&#xe5;" horiz-adv-x="574" 
d="M408 -16q-36 24 -48 72q0 63 -24 120q-30 36 -72 48h-264v282h310q83 -33 128 -132q36 -75 40 -152v-142q-22 -72 -48 -96h-22z" />
    <glyph glyph-name="ae" unicode="&#xe6;" horiz-adv-x="456" 
d="M144 -320v118v86q78 -3 120 34q33 11 48 96v138q-18 54 -48 72h-264v282h286q50 -3 68 -42v-186v-286q6 -93 -20 -168q-22 -39 -47.5 -58.5t-57 -24t-49.5 -61.5h-36zM-90 38q39 78 90 96q36 3 66 -12q18 -30 24 -66q-15 -69 -54 -114q-72 -24 -120 12q-12 45 -6 84z" />
    <glyph glyph-name="ccedilla" unicode="&#xe7;" horiz-adv-x="718" 
d="M384 -324v118v58l72 10q63 8 96 48q27 83 24 192v314q-18 144 -42 174q-21 54 -78 84q-51 27 -102 18q-27 -3 -60 -36q-42 -36 -56 -96l-4 -54h222v-354q0 -72 -18 -120q-18 -36 -31.5 -46.5t-48.5 -25.5h-70q-57 24 -72 48q-33 24 -48 72v144h-168v282h162l6 76
q9 62 48 120q39 59 120 96h94q53 -19 96 -48q48 -48 72 -96q20 -37 24 -72v-646q-4 -81 -34 -112q-27 -13 -62 -28q-55 -24 -82 -60l-14 -60h-46zM342 74q57 15 66 100v50h-194l2 -48q6 -75 72 -102h54z" />
    <glyph glyph-name="egrave" unicode="&#xe8;" horiz-adv-x="646" 
d="M72 -166q-30 -3 -48 30v142h24v38l-24 12q-15 36 -24 96v358q3 62 18 104q15 54 42 84q27 51 84 76h118q65 -19 96 -72q50 -46 72 -144v-96q11 44 26 48h214v-286h-192q71 -102 122 -162q-33 -45 -74 -126q-49 93 -70 144q-24 48 -48 168q-30 141 -48 312q-15 63 -72 96
q-60 24 -126 12q-51 -9 -68 -60q-13 -39 -16 -102h210v-396q-3 -51 -18 -78q-24 -45 -80 -72h-72l-4 -126h-42zM168 102q33 11 48 44v78h-144v-72q9 -30 46 -50h50z" />
    <glyph glyph-name="eacute" unicode="&#xe9;" horiz-adv-x="660" 
d="M564 224q0 -90 -26 -168q-10 -33 -34 -60q-27 -27 -62 -36q-34 -6 -70 0q-30 15 -48 48l-12 30l-14 -30q-25 -33 -48 -48q-46 -12 -94 0q-33 24 -60 60q-27 39 -36 132v72h-60v282h60q12 138 36 174q36 46 60 70q48 38 96 48q54 2 118 0q50 -16 92 -40l49.5 -49.5
t26.5 -54.5q23 -67 26 -148v-282zM228 102q39 11 48 62v60h-156v-60q12 -48 58 -62h50zM444 104q36 12 48 54v66h-146l2 -60q-3 -45 42 -60h54zM312 446q15 48 36 60h126l-6 78q-12 33 -27 54t-69 30q-93 15 -150 0q-45 -27 -78 -90l-6 -72h138q15 -15 36 -60z" />
    <glyph glyph-name="ecircumflex" unicode="&#xea;" horiz-adv-x="718" 
d="M408 -324v90v116l120 4q30 11 24 48v578q-15 111 -96 144q-120 15 -162 -6q-39 -33 -56 -90v-54h216q17 -9 24 -44v-214l-4 -96q-9 -99 -48 -138q-24 -27 -68 -54h-142v118q9 44 48 48h120q36 14 24 98h-408v282h168v76q12 65 36 110q45 84 132 106h94q41 -10 96 -48
q47 -40 72 -96q17 -34 24 -72v-670q-4 -93 -28 -132q-30 -36 -68 -36q-58 9 -82 -20l-14 -48h-22z" />
    <glyph glyph-name="edieresis" unicode="&#xeb;" horiz-adv-x="663" 
d="M564 224q0 -27 -6 -60q-6 -60 -30 -102q-30 -69 -92 -78h-70v24q-105 18 -216 -18l-2 -30h-46v70q9 71 48 96h96q51 14 48 72v26h-294v282h54v28q3 71 30 134q30 45 66 82q24 24 96 48q60 5 118 0q62 -13 96 -48q29 -31 56 -70q30 -45 40 -122q11 -31 8 -52v-282z
M462 122l24 28q3 29 0 74h-122q-4 -48 2 -66q0 -33 30 -42q33 -9 66 6zM306 386q9 84 36 120h144q-3 69 -42 120q-27 39 -78 54q-54 3 -98 0q-55 0 -94 -30q-36 -42 -50 -90l-4 -54h144q33 -39 42 -120z" />
    <glyph glyph-name="igrave" unicode="&#xec;" horiz-adv-x="872" 
d="M474 -64q-30 24 -42 48q-36 33 -72 96q-33 54 -48 120v24h-122v-144q-16 -57 -48 -96h-22q-33 27 -48 96v144h-72v282h378l4 -18v-290q5 -28 24 -48h26q0 72 24 146q21 111 96 262q75 119 96 266l-6 108q96 -174 198 -330q-98 -66 -146 -138q-58 -60 -96 -144
q-24 -48 -48 -144l-24 -264q-25 9 -52 24z" />
    <glyph glyph-name="iacute" unicode="&#xed;" horiz-adv-x="456" 
d="M144 -324v118v34q78 -3 120 34q33 11 48 96v194q-18 54 -48 72h-264v282h286q50 -3 68 -42v-186v-342q6 -93 -20 -116q-22 -39 -47.5 -58.5t-57 -24t-49.5 -61.5h-36zM-39 195q72 5 117 -31q16 -33 7 -74q-18 -22 -49 -43q-68 0 -116 25q-34 39 -25 92q33 25 66 31z
M-36 -22q91 -5 139 -45q14 -33 12 -63q-13 -30 -40 -56q-75 -4 -129 29q-38 42 -27 97q19 30 45 38z" />
    <glyph glyph-name="icircumflex" unicode="&#xee;" horiz-adv-x="792" 
d="M480 -320v118v30l72 10q48 14 72 48q27 23 24 72v194q-15 54 -48 72h-434q80 -138 152 -204q-60 -66 -96 -156q-114 189 -174 360h-48v282h622q41 -9 68 -48v-192v-324q6 -90 -20 -118q-31 -66 -96 -96q-58 0 -52 -48h-42z" />
    <glyph glyph-name="idieresis" unicode="&#xef;" horiz-adv-x="574" 
d="M144 8q-27 36 -48 72q-27 42 -48 144h-48v282h42q15 87 48 144q30 45 72 84q27 24 78 40q36 5 70 0l50 -24v66h-120q-20 12 -24 24v76h-24v70q4 22 24 24h22q14 -6 24 -24v-24q10 -14 24 -24h168v-70h-24v-164h-24l14 -18q12 -27 18 -60v-186q12 54 42 70h118v-286h-72
v-72q-13 -114 -70 -168h-12q-36 24 -60 168v384q-9 72 -54 108q-60 33 -120 12q-39 -21 -61.5 -49.5t-40.5 -100.5v-270q9 -63 72 -102l60 -30l-18 -72l-12 -66q-42 21 -66 42z" />
    <glyph glyph-name="eth" unicode="&#xf0;" horiz-adv-x="645" 
d="M546 230q3 -87 -12 -162q-24 -54 -48 -84l-32 -24q-52 -9 -94 0q-24 21 -54 48q-30 39 -42 120v378h204q3 54 -12 102q-27 36 -72 60q-45 21 -102 12q-72 -30 -90 -60q-33 -24 -50 -60q-28 -39 -48 -120v-146q11 -91 48 -144q44 -61 96 -72v-142l-94 54q-42 51 -66 108
q-24 48 -30 126h-48v282h48q15 57 42 108q18 33 54 78q27 57 120 82q45 8 94 0q74 -19 122 -58q33 -39 46 -86q17 -61 20 -124v-276zM432 78q48 17 48 62v84h-144v-84q6 -48 46 -62h50z" />
    <glyph glyph-name="ntilde" unicode="&#xf1;" horiz-adv-x="598" 
d="M330 -19l-18 21q-75 39 -120 126q-30 42 -36 96h-156v282h238q-22 -39 -24 -90v-146q5 -67 24 -120l24 -24l24 -24h26v384l24 72l24 50h-120q-36 15 -48 48q15 96 -4.5 120t-43.5 24v70q24 24 46 24q20 -4 48 -48v-48h240q24 -24 0 -70q-55 -81 -96 -192
q-22 -51 -24 -144v-242l20 -46q28 -74 52 -98l-24 -46z" />
    <glyph glyph-name="ograve" unicode="&#xf2;" horiz-adv-x="726" 
d="M384 -94q-39 33 -72 78q-66 87 -82.5 129t-31.5 111h-198v286h120v264h192v48q21 29 70 24v-142q-16 -60 -48 -96h-144v-98h96q-19 -49 -24 -94v-122q2 -34 24 -72l32 -52l18 148q24 110 48 168q30 77 72 144q39 56 48 120q24 74 18 176l52 -80l24 -48l24 -48l32 -70
l40 -50q-55 -58 -96 -118q-34 -39 -76 -114q-51 -81 -92 -198q-19 -96 -24 -192l-4 -102h-18z" />
    <glyph glyph-name="oacute" unicode="&#xf3;" horiz-adv-x="766" 
d="M144 -16l-24 24q-21 66 -24 144v72h-96v286h144q18 68 54 122q15 45 66 94q36 38 72 72h46l-24 -142q-13 -120 24 -194h26q24 50 72 120q48 65 96 104q48 40 94 64l-46 -82q-26 -36 -50 -84l-48 -96t-24 -96l-24 -384h-46q-24 24 -48 72t-48 120q-42 111 -48 240v144h-26
l-24 -48q-40 -111 -48 -240v-312h-46z" />
    <glyph glyph-name="ocircumflex" unicode="&#xf4;" horiz-adv-x="766" 
d="M144 -16l-24 24q-21 66 -24 144v72h-96v286h144q18 68 54 122q15 45 66 94q36 38 72 72h46l-24 -142q-13 -120 24 -194h26q24 50 72 120q48 65 96 104q48 40 94 64l-46 -82q-26 -36 -50 -84l-48 -96t-24 -96l-24 -384h-46q-24 24 -48 72t-48 120q-42 111 -48 240v144h-26
l-24 -48q-40 -111 -48 -240v-312h-46zM132 896q21 96 84 126q36 15 60 0q45 -42 36 -96q-6 -54 -42 -90t-84 -18l-30 18q-18 24 -24 60zM348 896q21 72 54 108q39 24 72 12q45 -30 42 -84q-3 -57 -42 -108q-54 -24 -102 0q-30 30 -24 72z" />
    <glyph glyph-name="otilde" unicode="&#xf5;" horiz-adv-x="1318" 
d="M1164 80q-21 54 -84 132q-33 66 -72 84h-26q0 -24 -24 -48t-72 -48q-46 -6 -94 0q-78 15 -114 60q-21 27 -30 60q-6 51 0 94q9 62 30 98q30 33 66 46q78 20 166 0q53 -28 96 -72q48 -48 96 -120q23 -31 48 -72q48 -72 72 -192q0 -46 -24 -70zM192 200q-84 36 -96 120
q-9 54 0 94q3 50 18 86q24 54 84 66q87 21 186 0q60 -24 94 -80q17 -100 0 -190q-22 -69 -72 -96q-124 -30 -214 0z" />
    <glyph glyph-name="odieresis" unicode="&#xf6;" horiz-adv-x="1052" 
d="M168 -58q-72 15 -96 90v192h-72v286h526q-16 -22 -24 -46v-170q2 -52 24 -96h26q30 188 96 312l56 96q57 95 72 192q0 122 -24 216q114 -223 228 -382l-38 -24q-74 -36 -126 -88l-50 -80q-49 -75 -96 -216q-22 -99 -24 -192v-72h-22l-48 24q-48 39 -72 72q-30 42 -48 96
v72h-122v-96q-4 -108 -46 -174q-50 -18 -120 -12zM234 62q39 36 30 78v84h-146v-74q-1 -43 32 -76q33 -18 84 -12z" />
    <glyph glyph-name="divide" unicode="&#xf7;" horiz-adv-x="598" 
d="M384 -184q-42 12 -72 48q-9 48 0 96h-122q-24 -24 -24 -48h-70v70q15 104 48 144h120v98h-264v286h622v-286h-264v-74q8 -67 24 -96h48q56 -4 96 -48v-142q-25 -39 -72 -48h-70zM456 -90q15 20 0 50q-39 18 -74 0q-16 -21 0 -50q35 -31 74 0z" />
    <glyph glyph-name="oslash" unicode="&#xf8;" horiz-adv-x="1407" 
d="M216 224q-102 9 -120 72q-12 51 0 94q15 56 48 72q123 11 286 0q152 -13 456 -48q96 -24 120 -48q8 -25 0 -46q-24 -24 -264 -48q-144 -24 -432 -48q-46 -9 -94 0zM1176 248q-57 18 -72 72q-6 36 0 70q9 50 48 72q48 11 94 0q32 -10 48 -48q17 -55 0 -118
q-19 -36 -48 -48q-37 -9 -70 0z" />
    <glyph glyph-name="ugrave" unicode="&#xf9;" horiz-adv-x="1470" 
d="M312 8l-48 12q-60 21 -96 60q-57 42 -72 120v214q3 65 30 98l48 60q42 30 78 48l36 10q72 20 142 0q72 -24 96 -48l48 -48t48 -72l48 -48q68 -52 168 -48h216v-70l-72 -24l-144 -24h-142q-57 12 -70.5 19.5t-25.5 52.5q-24 60 -66 102q-33 48 -90 78q-93 33 -162 6
q-75 -21 -92 -90v-194l14 -34q30 -45 82 -38h98q54 8 48 72h70l24 -24q0 -46 -24 -94q-48 -72 -106 -90zM1224 248q-39 12 -48 48v46q12 38 48 62l24 10h46q62 -16 72 -72q8 -46 -24 -94q-61 -27 -118 0z" />
    <glyph glyph-name="uacute" unicode="&#xfa;" horiz-adv-x="594" 
d="M312 -88l-24 96q-24 72 -50 120l-24 -24v-48q-19 -48 -48 -72q-24 -24 -70 -24q-12 78 24 118q33 2 48 96v50h-168v286h192q0 56 24 120q21 38 48 72l48 48h118q32 -25 48 -72q20 -100 0 -190q-24 -48 -70 -48q12 168 -24 192h-50l-48 -48q-43 -30 -48 -120v-146
q5 -76 44 -124q21 -48 52 -92l48 -24q0 -70 -24 -166h-46z" />
    <glyph glyph-name="ucircumflex" unicode="&#xfb;" horiz-adv-x="718" 
d="M384 -320v70v132l120 4q30 5 48 48q27 104 24 240v218q-9 72 -12 126q-15 102 -108 156q-57 15 -102 0q-69 -15 -92 -66q-24 -72 -24 -98h192v-430q-13 -57 -26.5 -79.5t-45.5 -40.5h-72q-25 -33 -24 -96l-24 -24h-22q-30 21 -48 72v118h24l6 38q-18 12 -30 36v120h-168
v286h168v72q24 101 78 158q42 34 90 58q45 5 94 0q59 -13 96 -48q32 -28 56 -70q21 -45 40 -122v-550q-1 -129 -48 -184q-24 -24 -72 -48q-31 -12 -72 -48v-48h-46zM360 126l24 24v74h-146v-98h122z" />
    <glyph glyph-name="udieresis" unicode="&#xfc;" horiz-adv-x="651" 
d="M552 218q0 -96 -26 -162q-10 -33 -34 -60q-27 -27 -62 -36q-34 -6 -70 0q-30 15 -48 48l-12 30l-14 -30q-25 -33 -48 -48q-46 -18 -70 -6q6 -45 -30 -60q-9 -27 -6 -66l-60 6q-15 33 -6 72q3 36 66 60q-33 24 -48 54q-27 39 -36 132v72h-48v282h48q12 138 36 174
q36 46 60 70q48 38 96 48q54 2 118 0q50 -16 92 -40l49.5 -49.5t26.5 -54.5q29 -76 26 -148v-288zM216 102q39 11 48 62v60h-156v-60q12 -48 58 -62h50zM432 104q36 12 48 54v66h-146l2 -60q-3 -45 42 -60h54zM300 446q15 48 36 60h126l-6 78q-12 33 -27 54t-69 30
q-93 15 -150 0q-45 -27 -78 -90l-6 -72h138q15 -15 36 -60z" />
    <glyph glyph-name="yacute" unicode="&#xfd;" horiz-adv-x="766" 
d="M432 -320v70v132q144 -12 168 28q27 92 24 192v242q-18 138 -42 204q-33 72 -102 108h-74q-85 -3 -120 -96v-74h24q68 -37 96 -96q24 -48 24 -214l-24 -120l-24 -96h-22q-12 90 -48 168q-24 24 -50 24v-48l-24 -120q-46 0 -70 24v46h24v146q-6 18 -24 24h-168v286h216v96
q6 65 48 110q33 42 72 58l48 24h94q59 -16 92 -52q27 -39 52 -68q32 -73 48 -144v-598q-14 -92 -62 -140q-40 -32 -82 -44q-34 8 -48 -24l-16 -48h-30z" />
    <glyph glyph-name="thorn" unicode="&#xfe;" horiz-adv-x="732" 
d="M636 224q0 -78 -14 -144q-4 -51 -17.5 -75t-54.5 -45h-118l-43.5 43.5t-28.5 76.5v426h192v54q-15 27 -36 54q-27 33 -78 66q-60 18 -126 12q-48 -18 -96 -48q-42 -33 -54 -78l-20 -54l-4 -12q51 -21 90 -60t51 -75t7 -189q-10 -186 -48 -216l-22 48q-15 54 -48 96h-26
v-96q-10 -18 -24 -24h-46v216q-9 12 -24 24h-48v282h96q-9 66 24 148q42 65 90 104q45 36 102 40q57 2 118 0q68 -19 104 -70q39 -45 64 -98q20 -40 38 -100v-84v-222zM504 78q30 -4 48 48v98h-122l2 -72q-3 -51 42 -78z" />
    <glyph glyph-name="ydieresis" unicode="&#xff;" horiz-adv-x="958" 
d="M672 -320v184h72q48 -2 72 22v72v194q0 48 -24 72h-362q59 -99 170 -198q-81 -72 -120 -138q-90 153 -144 336h-146v-144q-16 -66 -48 -96h-22q-39 27 -48 96v144h-72v286h814q35 -19 48 -48v-638q-14 -76 -90 -92q-40 8 -46 -52h-54z" />
    <glyph glyph-name="OE" unicode="&#x152;" 
 />
    <glyph glyph-name="oe" unicode="&#x153;" 
 />
    <glyph glyph-name="Scaron" unicode="&#x160;" 
 />
    <glyph glyph-name="scaron" unicode="&#x161;" 
 />
    <glyph glyph-name="Ydieresis" unicode="&#x178;" 
 />
    <glyph glyph-name="Zcaron" unicode="&#x17d;" 
 />
    <glyph glyph-name="zcaron" unicode="&#x17e;" 
 />
    <glyph glyph-name="florin" unicode="&#x192;" 
 />
    <glyph glyph-name="circumflex" unicode="&#x2c6;" 
 />
    <glyph glyph-name="tilde" unicode="&#x2dc;" 
 />
    <glyph glyph-name="endash" unicode="&#x2013;" 
 />
    <glyph glyph-name="emdash" unicode="&#x2014;" 
 />
    <glyph glyph-name="quoteleft" unicode="&#x2018;" 
 />
    <glyph glyph-name="quoteright" unicode="&#x2019;" 
 />
    <glyph glyph-name="quotesinglbase" unicode="&#x201a;" 
 />
    <glyph glyph-name="quotedblleft" unicode="&#x201c;" 
 />
    <glyph glyph-name="quotedblright" unicode="&#x201d;" 
 />
    <glyph glyph-name="quotedblbase" unicode="&#x201e;" 
 />
    <glyph glyph-name="dagger" unicode="&#x2020;" 
 />
    <glyph glyph-name="daggerdbl" unicode="&#x2021;" horiz-adv-x="446" 
 />
    <glyph glyph-name="bullet" unicode="&#x2022;" 
 />
    <glyph glyph-name="ellipsis" unicode="&#x2026;" 
 />
    <glyph glyph-name="perthousand" unicode="&#x2030;" 
 />
    <glyph glyph-name="guilsinglleft" unicode="&#x2039;" 
 />
    <glyph glyph-name="guilsinglright" unicode="&#x203a;" 
 />
    <glyph glyph-name="Euro" unicode="&#x20ac;" 
 />
    <glyph glyph-name="trademark" unicode="&#x2122;" 
 />
    <glyph glyph-name="uni2219" unicode="&#x2219;" horiz-adv-x="438" 
d="M120 -112q-33 21 -24 118q6 68 24 120h144v98h-264v282h462v-282h-104v-264h-168q-34 -9 -48 -48v-24h-22z" />
  </font>
</defs>
</svg>
